<?xml version="1.0" encoding="UTF-8" standalone="no"?>
<!DOCTYPE svg PUBLIC "-//W3C//DTD SVG 1.1//EN" "http://www.w3.org/Graphics/SVG/1.1/DTD/svg11.dtd">
<svg width="100%" height="100%" viewBox="0 0 960 160" version="1.1" xmlns="http://www.w3.org/2000/svg" xmlns:xlink="http://www.w3.org/1999/xlink" xml:space="preserve" xmlns:serif="http://www.serif.com/" style="fill-rule:evenodd;clip-rule:evenodd;stroke-linejoin:round;stroke-miterlimit:1.41421;">
    <g id="Full-Colors" serif:id="Full Colors" transform="matrix(1,0,0,1.06374,1.13687e-13,0.438596)">
        <rect x="0" y="-0.412" width="960" height="150.412" style="fill:none;"/>
        <clipPath id="_clip1">
            <rect x="0" y="-0.412" width="960" height="150.412"/>
        </clipPath>
        <g clip-path="url(#_clip1)">
            <g transform="matrix(1,0,0,0.940077,-12.7075,-0.114012)">
                <path d="M39.06,67.62L24.22,82.46L24.22,102.2L13.02,102.2L13.02,0L24.22,0L24.22,68.46L60.48,32.2L74.48,32.2L47.18,59.5L76.16,102.2L62.58,102.2L39.06,67.62Z" style="fill:rgb(0,204,255);fill-rule:nonzero;"/>
                <path d="M174.983,63.56C174.983,66.173 174.796,68.787 174.423,71.4L121.643,71.4C122.296,78.493 124.653,84 128.713,87.92C132.773,91.84 138.023,93.8 144.463,93.8C149.596,93.8 153.866,92.913 157.273,91.14C160.68,89.367 162.99,86.8 164.203,83.44L173.583,88.34C170.783,93.287 167.05,97.067 162.383,99.68C157.716,102.293 151.743,103.6 144.463,103.6C133.916,103.6 125.633,100.38 119.613,93.94C113.593,87.5 110.583,78.587 110.583,67.2C110.583,55.813 113.453,46.9 119.193,40.46C124.933,34.02 133.076,30.8 143.623,30.8C150.156,30.8 155.803,32.247 160.563,35.14C165.323,38.033 168.916,41.953 171.343,46.9C173.77,51.847 174.983,57.4 174.983,63.56ZM143.623,40.6C137.463,40.6 132.493,42.42 128.713,46.06C124.933,49.7 122.623,54.833 121.783,61.46L164.203,61.46C163.456,54.927 161.31,49.817 157.763,46.13C154.216,42.443 149.503,40.6 143.623,40.6Z" style="fill:rgb(0,204,255);fill-rule:nonzero;"/>
                <path d="M277.446,32.2L248.326,102.2L237.126,102.2L208.006,32.2L220.746,32.2L242.866,90.86L265.686,32.2L277.446,32.2Z" style="fill:rgb(0,204,255);fill-rule:nonzero;"/>
                <path d="M322.789,18.76C320.269,18.76 318.239,17.99 316.699,16.45C315.159,14.91 314.389,12.88 314.389,10.36C314.389,7.84 315.159,5.81 316.699,4.27C318.239,2.73 320.269,1.96 322.789,1.96C325.309,1.96 327.339,2.73 328.879,4.27C330.419,5.81 331.189,7.84 331.189,10.36C331.189,12.88 330.419,14.91 328.879,16.45C327.339,17.99 325.309,18.76 322.789,18.76ZM328.389,102.2L317.189,102.2L317.189,32.2L328.389,32.2L328.389,102.2Z" style="fill:rgb(0,204,255);fill-rule:nonzero;"/>
                <path d="M413.492,30.8C421.426,30.8 427.959,33.087 433.092,37.66C438.226,42.233 440.792,48.813 440.792,57.4L440.792,102.2L429.592,102.2L429.592,61.32C429.592,54.04 428.029,48.767 424.902,45.5C421.776,42.233 417.599,40.6 412.372,40.6C408.639,40.6 405.139,41.417 401.872,43.05C398.606,44.683 395.922,47.343 393.822,51.03C391.722,54.717 390.672,59.36 390.672,64.96L390.672,102.2L379.472,102.2L379.472,32.2L389.272,32.2L389.972,43.12C392.306,38.92 395.526,35.817 399.632,33.81C403.739,31.803 408.359,30.8 413.492,30.8Z" style="fill:rgb(0,204,255);fill-rule:nonzero;"/>
                <path d="M584.975,32.2L561.455,102.2L557.535,102.2L533.595,37.38L509.795,102.2L505.875,102.2L482.495,32.2L486.695,32.2L507.975,97.3L531.635,32.2L535.695,32.2L559.495,97.3L580.635,32.2L584.975,32.2Z" style="fill:rgb(192,192,192);fill-rule:nonzero;"/>
                <path d="M681.698,69.3L624.158,69.3C624.532,79.007 627.215,86.567 632.208,91.98C637.202,97.393 644.038,100.1 652.718,100.1C658.412,100.1 663.498,98.817 667.978,96.25C672.458,93.683 675.772,90.113 677.918,85.54L681.138,87.22C678.618,92.353 674.885,96.367 669.938,99.26C664.992,102.153 659.252,103.6 652.718,103.6C642.545,103.6 634.588,100.38 628.848,93.94C623.108,87.5 620.238,78.587 620.238,67.2C620.238,55.813 623.038,46.9 628.638,40.46C634.238,34.02 641.985,30.8 651.878,30.8C661.305,30.8 668.655,34.043 673.928,40.53C679.202,47.017 681.838,55.813 681.838,66.92L681.698,69.3ZM651.878,34.16C643.385,34.16 636.688,36.937 631.788,42.49C626.888,48.043 624.345,55.767 624.158,65.66L678.198,65.66C677.918,55.767 675.515,48.043 670.988,42.49C666.462,36.937 660.092,34.16 651.878,34.16Z" style="fill:rgb(192,192,192);fill-rule:nonzero;"/>
                <path d="M757.421,30.8C767.408,30.8 775.248,34.02 780.941,40.46C786.635,46.9 789.481,55.813 789.481,67.2C789.481,78.587 786.635,87.5 780.941,93.94C775.248,100.38 767.408,103.6 757.421,103.6C750.515,103.6 744.658,101.803 739.851,98.21C735.045,94.617 731.708,89.647 729.841,83.3L729.701,102.2L726.061,102.2L726.061,0L729.981,0L729.981,50.68C731.848,44.427 735.185,39.55 739.991,36.05C744.798,32.55 750.608,30.8 757.421,30.8ZM756.861,100.1C765.915,100.1 772.961,97.207 778.001,91.42C783.041,85.633 785.561,77.56 785.561,67.2C785.561,56.84 783.041,48.743 778.001,42.91C772.961,37.077 765.915,34.16 756.861,34.16C748.648,34.16 742.115,37.077 737.261,42.91C732.408,48.743 729.981,56.653 729.981,66.64L729.981,67.76C729.981,77.747 732.408,85.633 737.261,91.42C742.115,97.207 748.648,100.1 756.861,100.1Z" style="fill:rgb(192,192,192);fill-rule:nonzero;"/>
                <path d="M890.824,69.3L833.284,69.3C833.658,79.007 836.341,86.567 841.334,91.98C846.328,97.393 853.164,100.1 861.844,100.1C867.538,100.1 872.624,98.817 877.104,96.25C881.584,93.683 884.898,90.113 887.044,85.54L890.264,87.22C887.744,92.353 884.011,96.367 879.064,99.26C874.118,102.153 868.378,103.6 861.844,103.6C851.671,103.6 843.714,100.38 837.974,93.94C832.234,87.5 829.364,78.587 829.364,67.2C829.364,55.813 832.164,46.9 837.764,40.46C843.364,34.02 851.111,30.8 861.004,30.8C870.431,30.8 877.781,34.043 883.054,40.53C888.328,47.017 890.964,55.813 890.964,66.92L890.824,69.3ZM861.004,34.16C852.511,34.16 845.814,36.937 840.914,42.49C836.014,48.043 833.471,55.767 833.284,65.66L887.324,65.66C887.044,55.767 884.641,48.043 880.114,42.49C875.588,36.937 869.218,34.16 861.004,34.16Z" style="fill:rgb(192,192,192);fill-rule:nonzero;"/>
                <path d="M961.787,30.8C965.987,30.8 969.161,31.78 971.307,33.74L969.907,37.24C968.787,36.307 967.574,35.583 966.267,35.07C964.961,34.557 963.187,34.3 960.947,34.3C956.934,34.3 953.271,35.56 949.957,38.08C946.644,40.6 944.007,44.007 942.047,48.3C940.087,52.593 939.107,57.167 939.107,62.02L939.107,102.2L935.187,102.2L935.187,32.2L938.687,32.2L938.967,48.86C940.741,43.447 943.634,39.083 947.647,35.77C951.661,32.457 956.374,30.8 961.787,30.8Z" style="fill:rgb(192,192,192);fill-rule:nonzero;"/>
            </g>
            <g transform="matrix(1,0,0,0.940077,-1.41352e-14,118.07)">
                <path d="M10.476,2.16C12.036,2.16 13.374,2.442 14.49,3.006C15.606,3.57 16.452,4.32 17.028,5.256C17.604,6.192 17.892,7.224 17.892,8.352C17.892,9.456 17.688,10.452 17.28,11.34C16.872,12.228 16.326,12.93 15.642,13.446C14.958,13.962 14.22,14.22 13.428,14.22L13.428,14.292C14.94,14.292 16.152,14.838 17.064,15.93C17.976,17.022 18.432,18.348 18.432,19.908C18.432,21.18 18.09,22.332 17.406,23.364C16.722,24.396 15.744,25.2 14.472,25.776C13.2,26.352 11.736,26.64 10.08,26.64C6.12,26.64 3.384,24.744 1.872,20.952L4.536,19.548C5.016,21.012 5.682,22.11 6.534,22.842C7.386,23.574 8.64,23.94 10.296,23.94C11.904,23.94 13.164,23.538 14.076,22.734C14.988,21.93 15.444,20.892 15.444,19.62C15.444,18.156 15.006,17.13 14.13,16.542C13.254,15.954 11.868,15.66 9.972,15.66L9.036,15.66L9.036,12.96L9.972,12.96C13.26,12.96 14.904,11.616 14.904,8.928C14.904,7.584 14.526,6.57 13.77,5.886C13.014,5.202 11.928,4.86 10.512,4.86C9.12,4.86 8.01,5.178 7.182,5.814C6.354,6.45 5.784,7.344 5.472,8.496L2.772,7.236C3.348,5.676 4.326,4.44 5.706,3.528C7.086,2.616 8.676,2.16 10.476,2.16Z" style="fill:rgb(160,160,160);fill-rule:nonzero;"/>
                <path d="M43.344,2.52C47.088,2.52 50.016,3.552 52.128,5.616C54.24,7.68 55.296,10.608 55.296,14.4C55.296,18.192 54.24,21.12 52.128,23.184C50.016,25.248 47.088,26.28 43.344,26.28L35.676,26.28L35.676,2.52L43.344,2.52ZM43.632,23.58C46.344,23.58 48.462,22.77 49.986,21.15C51.51,19.53 52.272,17.28 52.272,14.4C52.272,11.52 51.51,9.27 49.986,7.65C48.462,6.03 46.344,5.22 43.632,5.22L38.556,5.22L38.556,23.58L43.632,23.58Z" style="fill:rgb(160,160,160);fill-rule:nonzero;"/>
                <path d="M135.939,25.02C134.739,26.1 133.191,26.64 131.295,26.64C129.831,26.64 128.637,26.244 127.713,25.452C126.789,24.66 126.315,23.448 126.291,21.816L126.291,10.764L122.691,10.764L122.691,8.28L126.291,8.28L126.291,3.96L129.171,3.168L129.171,8.28L135.831,8.28L135.831,10.764L129.171,10.764L129.171,21.312C129.171,22.176 129.417,22.83 129.909,23.274C130.401,23.718 131.055,23.94 131.871,23.94C133.023,23.94 134.043,23.496 134.931,22.608L135.939,25.02Z" style="fill:rgb(160,160,160);fill-rule:nonzero;"/>
                <path d="M166.251,16.344C166.251,17.016 166.203,17.688 166.107,18.36L152.535,18.36C152.703,20.184 153.309,21.6 154.353,22.608C155.397,23.616 156.747,24.12 158.403,24.12C159.723,24.12 160.821,23.892 161.697,23.436C162.573,22.98 163.167,22.32 163.479,21.456L165.891,22.716C165.171,23.988 164.211,24.96 163.011,25.632C161.811,26.304 160.275,26.64 158.403,26.64C155.691,26.64 153.561,25.812 152.013,24.156C150.465,22.5 149.691,20.208 149.691,17.28C149.691,14.352 150.429,12.06 151.905,10.404C153.381,8.748 155.475,7.92 158.187,7.92C159.867,7.92 161.319,8.292 162.543,9.036C163.767,9.78 164.691,10.788 165.315,12.06C165.939,13.332 166.251,14.76 166.251,16.344ZM158.187,10.44C156.603,10.44 155.325,10.908 154.353,11.844C153.381,12.78 152.787,14.1 152.571,15.804L163.479,15.804C163.287,14.124 162.735,12.81 161.823,11.862C160.911,10.914 159.699,10.44 158.187,10.44Z" style="fill:rgb(160,160,160);fill-rule:nonzero;"/>
                <path d="M190.119,7.92C191.919,7.92 193.437,8.334 194.673,9.162C195.909,9.99 196.875,11.172 197.571,12.708L194.835,14.004C194.067,11.628 192.471,10.44 190.047,10.44C188.247,10.44 186.837,11.046 185.817,12.258C184.797,13.47 184.287,15.144 184.287,17.28C184.287,19.416 184.797,21.09 185.817,22.302C186.837,23.514 188.247,24.12 190.047,24.12C191.439,24.12 192.561,23.802 193.413,23.166C194.265,22.53 194.823,21.612 195.087,20.412L197.751,21.348C197.127,23.028 196.167,24.33 194.871,25.254C193.575,26.178 191.991,26.64 190.119,26.64C187.407,26.64 185.277,25.812 183.729,24.156C182.181,22.5 181.407,20.208 181.407,17.28C181.407,14.352 182.181,12.06 183.729,10.404C185.277,8.748 187.407,7.92 190.119,7.92Z" style="fill:rgb(160,160,160);fill-rule:nonzero;"/>
                <path d="M222.375,7.92C224.415,7.92 226.095,8.508 227.415,9.684C228.735,10.86 229.395,12.552 229.395,14.76L229.395,26.28L226.515,26.28L226.515,15.768C226.515,13.896 226.113,12.54 225.309,11.7C224.505,10.86 223.431,10.44 222.087,10.44C221.151,10.44 220.257,10.656 219.405,11.088C218.553,11.52 217.857,12.21 217.317,13.158C216.777,14.106 216.507,15.3 216.507,16.74L216.507,26.28L213.627,26.28L213.627,0L216.507,0L216.507,10.98C217.107,9.948 217.917,9.18 218.937,8.676C219.957,8.172 221.103,7.92 222.375,7.92Z" style="fill:rgb(160,160,160);fill-rule:nonzero;"/>
                <path d="M255.459,7.92C257.499,7.92 259.179,8.508 260.499,9.684C261.819,10.86 262.479,12.552 262.479,14.76L262.479,26.28L259.599,26.28L259.599,15.768C259.599,13.896 259.197,12.54 258.393,11.7C257.589,10.86 256.515,10.44 255.171,10.44C254.211,10.44 253.311,10.65 252.471,11.07C251.631,11.49 250.941,12.174 250.401,13.122C249.861,14.07 249.591,15.264 249.591,16.704L249.591,26.28L246.711,26.28L246.711,8.28L249.231,8.28L249.411,11.088C250.011,10.008 250.839,9.21 251.895,8.694C252.951,8.178 254.139,7.92 255.459,7.92Z" style="fill:rgb(160,160,160);fill-rule:nonzero;"/>
                <path d="M281.235,4.824C280.587,4.824 280.065,4.626 279.669,4.23C279.273,3.834 279.075,3.312 279.075,2.664C279.075,2.016 279.273,1.494 279.669,1.098C280.065,0.702 280.587,0.504 281.235,0.504C281.883,0.504 282.405,0.702 282.801,1.098C283.197,1.494 283.395,2.016 283.395,2.664C283.395,3.312 283.197,3.834 282.801,4.23C282.405,4.626 281.883,4.824 281.235,4.824ZM282.675,26.28L279.795,26.28L279.795,8.28L282.675,8.28L282.675,26.28Z" style="fill:rgb(160,160,160);fill-rule:nonzero;"/>
                <path d="M307.767,7.92C309.567,7.92 311.085,8.334 312.321,9.162C313.557,9.99 314.523,11.172 315.219,12.708L312.483,14.004C311.715,11.628 310.119,10.44 307.695,10.44C305.895,10.44 304.485,11.046 303.465,12.258C302.445,13.47 301.935,15.144 301.935,17.28C301.935,19.416 302.445,21.09 303.465,22.302C304.485,23.514 305.895,24.12 307.695,24.12C309.087,24.12 310.209,23.802 311.061,23.166C311.913,22.53 312.471,21.612 312.735,20.412L315.399,21.348C314.775,23.028 313.815,24.33 312.519,25.254C311.223,26.178 309.639,26.64 307.767,26.64C305.055,26.64 302.925,25.812 301.377,24.156C299.829,22.5 299.055,20.208 299.055,17.28C299.055,14.352 299.829,12.06 301.377,10.404C302.925,8.748 305.055,7.92 307.767,7.92Z" style="fill:rgb(160,160,160);fill-rule:nonzero;"/>
                <path d="M346.035,24.192C346.515,24.192 346.995,24.132 347.475,24.012L347.295,26.28C346.623,26.52 345.903,26.64 345.135,26.64C344.199,26.64 343.461,26.436 342.921,26.028C342.381,25.62 342.039,24.936 341.895,23.976C341.343,24.816 340.533,25.47 339.465,25.938C338.397,26.406 337.275,26.64 336.099,26.64C334.323,26.64 332.859,26.226 331.707,25.398C330.555,24.57 329.979,23.376 329.979,21.816C329.979,20.448 330.579,19.266 331.779,18.27C332.979,17.274 334.719,16.584 336.999,16.2L341.787,15.408L341.787,14.4C341.787,13.2 341.415,12.24 340.671,11.52C339.927,10.8 338.895,10.44 337.575,10.44C336.375,10.44 335.337,10.728 334.461,11.304C333.585,11.88 332.907,12.732 332.427,13.86L330.303,12.312C330.783,10.968 331.677,9.9 332.985,9.108C334.293,8.316 335.823,7.92 337.575,7.92C339.711,7.92 341.427,8.436 342.723,9.468C344.019,10.5 344.667,12.024 344.667,14.04L344.667,22.896C344.667,23.328 344.775,23.652 344.991,23.868C345.207,24.084 345.555,24.192 346.035,24.192ZM336.243,24.12C337.755,24.12 339.057,23.76 340.149,23.04C341.241,22.32 341.787,21.384 341.787,20.232L341.787,17.748L337.755,18.504C336.147,18.792 334.947,19.206 334.155,19.746C333.363,20.286 332.967,20.976 332.967,21.816C332.967,22.56 333.255,23.13 333.831,23.526C334.407,23.922 335.211,24.12 336.243,24.12Z" style="fill:rgb(160,160,160);fill-rule:nonzero;"/>
                <path d="M365.187,21.456C365.187,22.368 365.325,22.998 365.601,23.346C365.877,23.694 366.387,23.868 367.131,23.868C367.635,23.868 368.073,23.832 368.445,23.76C368.817,23.688 369.255,23.556 369.759,23.364L369.291,26.136C368.499,26.472 367.611,26.64 366.627,26.64C365.163,26.64 364.077,26.244 363.369,25.452C362.661,24.66 362.307,23.448 362.307,21.816L362.307,0L365.187,0L365.187,21.456Z" style="fill:rgb(160,160,160);fill-rule:nonzero;"/>
                <path d="M452.506,24.192C452.986,24.192 453.466,24.132 453.946,24.012L453.766,26.28C453.094,26.52 452.374,26.64 451.606,26.64C450.67,26.64 449.932,26.436 449.392,26.028C448.852,25.62 448.51,24.936 448.366,23.976C447.814,24.816 447.004,25.47 445.936,25.938C444.868,26.406 443.746,26.64 442.57,26.64C440.794,26.64 439.33,26.226 438.178,25.398C437.026,24.57 436.45,23.376 436.45,21.816C436.45,20.448 437.05,19.266 438.25,18.27C439.45,17.274 441.19,16.584 443.47,16.2L448.258,15.408L448.258,14.4C448.258,13.2 447.886,12.24 447.142,11.52C446.398,10.8 445.366,10.44 444.046,10.44C442.846,10.44 441.808,10.728 440.932,11.304C440.056,11.88 439.378,12.732 438.898,13.86L436.774,12.312C437.254,10.968 438.148,9.9 439.456,9.108C440.764,8.316 442.294,7.92 444.046,7.92C446.182,7.92 447.898,8.436 449.194,9.468C450.49,10.5 451.138,12.024 451.138,14.04L451.138,22.896C451.138,23.328 451.246,23.652 451.462,23.868C451.678,24.084 452.026,24.192 452.506,24.192ZM442.714,24.12C444.226,24.12 445.528,23.76 446.62,23.04C447.712,22.32 448.258,21.384 448.258,20.232L448.258,17.748L444.226,18.504C442.618,18.792 441.418,19.206 440.626,19.746C439.834,20.286 439.438,20.976 439.438,21.816C439.438,22.56 439.726,23.13 440.302,23.526C440.878,23.922 441.682,24.12 442.714,24.12Z" style="fill:rgb(160,160,160);fill-rule:nonzero;"/>
                <path d="M477.418,7.92C478.282,7.92 478.942,8.04 479.398,8.28L478.822,11.088C478.246,10.776 477.49,10.62 476.554,10.62C475.786,10.62 475.036,10.842 474.304,11.286C473.572,11.73 472.972,12.402 472.504,13.302C472.036,14.202 471.802,15.288 471.802,16.56L471.802,26.28L468.922,26.28L468.922,8.28L471.262,8.28L471.658,11.232C472.666,9.024 474.586,7.92 477.418,7.92Z" style="fill:rgb(160,160,160);fill-rule:nonzero;"/>
                <path d="M504.346,25.02C503.146,26.1 501.598,26.64 499.702,26.64C498.238,26.64 497.044,26.244 496.12,25.452C495.196,24.66 494.722,23.448 494.698,21.816L494.698,10.764L491.098,10.764L491.098,8.28L494.698,8.28L494.698,3.96L497.578,3.168L497.578,8.28L504.238,8.28L504.238,10.764L497.578,10.764L497.578,21.312C497.578,22.176 497.824,22.83 498.316,23.274C498.808,23.718 499.462,23.94 500.278,23.94C501.43,23.94 502.45,23.496 503.338,22.608L504.346,25.02Z" style="fill:rgb(160,160,160);fill-rule:nonzero;"/>
                <path d="M520.654,4.824C520.006,4.824 519.484,4.626 519.088,4.23C518.692,3.834 518.494,3.312 518.494,2.664C518.494,2.016 518.692,1.494 519.088,1.098C519.484,0.702 520.006,0.504 520.654,0.504C521.302,0.504 521.824,0.702 522.22,1.098C522.616,1.494 522.814,2.016 522.814,2.664C522.814,3.312 522.616,3.834 522.22,4.23C521.824,4.626 521.302,4.824 520.654,4.824ZM522.094,26.28L519.214,26.28L519.214,8.28L522.094,8.28L522.094,26.28Z" style="fill:rgb(160,160,160);fill-rule:nonzero;"/>
                <path d="M545.71,26.64C543.982,26.64 542.422,26.298 541.03,25.614C539.638,24.93 538.618,23.916 537.97,22.572L540.31,20.952C540.718,22.008 541.426,22.8 542.434,23.328C543.442,23.856 544.63,24.12 545.998,24.12C547.414,24.12 548.494,23.868 549.238,23.364C549.982,22.86 550.354,22.224 550.354,21.456C550.354,20.76 550.006,20.202 549.31,19.782C548.614,19.362 547.39,18.996 545.638,18.684C543.91,18.372 542.542,17.994 541.534,17.55C540.526,17.106 539.794,16.542 539.338,15.858C538.882,15.174 538.654,14.328 538.654,13.32C538.654,12.336 538.942,11.436 539.518,10.62C540.094,9.804 540.922,9.15 542.002,8.658C543.082,8.166 544.33,7.92 545.746,7.92C547.666,7.92 549.208,8.274 550.372,8.982C551.536,9.69 552.37,10.776 552.874,12.24L550.426,13.68C550.042,12.528 549.46,11.7 548.68,11.196C547.9,10.692 546.922,10.44 545.746,10.44C544.57,10.44 543.574,10.704 542.758,11.232C541.942,11.76 541.534,12.372 541.534,13.068C541.534,13.86 541.888,14.472 542.596,14.904C543.304,15.336 544.57,15.708 546.394,16.02C548.89,16.428 550.654,17.04 551.686,17.856C552.718,18.672 553.234,19.824 553.234,21.312C553.234,22.344 552.928,23.262 552.316,24.066C551.704,24.87 550.828,25.5 549.688,25.956C548.548,26.412 547.222,26.64 545.71,26.64Z" style="fill:rgb(160,160,160);fill-rule:nonzero;"/>
                <path d="M580.378,25.02C579.178,26.1 577.63,26.64 575.734,26.64C574.27,26.64 573.076,26.244 572.152,25.452C571.228,24.66 570.754,23.448 570.73,21.816L570.73,10.764L567.13,10.764L567.13,8.28L570.73,8.28L570.73,3.96L573.61,3.168L573.61,8.28L580.27,8.28L580.27,10.764L573.61,10.764L573.61,21.312C573.61,22.176 573.856,22.83 574.348,23.274C574.84,23.718 575.494,23.94 576.31,23.94C577.462,23.94 578.482,23.496 579.37,22.608L580.378,25.02Z" style="fill:rgb(160,160,160);fill-rule:nonzero;"/>
                <path d="M664.601,22.032C665.537,23.016 666.323,23.67 666.959,23.994C667.595,24.318 668.345,24.48 669.209,24.48L668.489,26.64C667.529,26.64 666.665,26.46 665.897,26.1C665.129,25.74 664.181,24.996 663.053,23.868C662.117,24.756 661.049,25.44 659.849,25.92C658.649,26.4 657.341,26.64 655.925,26.64C654.461,26.64 653.153,26.376 652.001,25.848C650.849,25.32 649.955,24.588 649.319,23.652C648.683,22.716 648.365,21.66 648.365,20.484C648.365,18.996 648.803,17.67 649.679,16.506C650.555,15.342 652.013,14.22 654.053,13.14C653.021,11.796 652.307,10.728 651.911,9.936C651.515,9.144 651.317,8.304 651.317,7.416C651.317,6.528 651.533,5.682 651.965,4.878C652.397,4.074 653.033,3.42 653.873,2.916C654.713,2.412 655.721,2.16 656.897,2.16C658.457,2.16 659.771,2.562 660.839,3.366C661.907,4.17 662.441,5.4 662.441,7.056C662.441,8.424 662.123,9.612 661.487,10.62C660.851,11.628 659.609,12.672 657.761,13.752C658.169,14.304 658.961,15.3 660.137,16.74L661.433,18.36L663.017,20.268C664.025,18.612 664.529,16.68 664.529,14.472C664.529,14.04 664.517,13.716 664.493,13.5L666.797,13.788L666.833,14.652C666.833,15.996 666.641,17.298 666.257,18.558C665.873,19.818 665.321,20.976 664.601,22.032ZM656.861,4.608C655.949,4.608 655.247,4.872 654.755,5.4C654.263,5.928 654.017,6.588 654.017,7.38C654.017,8.004 654.161,8.61 654.449,9.198C654.737,9.786 655.373,10.716 656.357,11.988C657.821,11.196 658.775,10.428 659.219,9.684C659.663,8.94 659.885,8.088 659.885,7.128C659.885,5.448 658.877,4.608 656.861,4.608ZM655.817,24.3C656.897,24.3 657.917,24.12 658.877,23.76C659.837,23.4 660.701,22.872 661.469,22.176C660.653,21.288 659.561,19.992 658.193,18.288L655.529,15.012C653.777,16.02 652.595,16.914 651.983,17.694C651.371,18.474 651.065,19.332 651.065,20.268C651.065,21.42 651.533,22.38 652.469,23.148C653.405,23.916 654.521,24.3 655.817,24.3Z" style="fill:rgb(160,160,160);fill-rule:nonzero;"/>
                <path d="M753.936,0L753.936,26.28L751.416,26.28L751.236,23.148C750.708,24.204 749.898,25.05 748.806,25.686C747.714,26.322 746.472,26.64 745.08,26.64C742.56,26.64 740.562,25.806 739.086,24.138C737.61,22.47 736.872,20.184 736.872,17.28C736.872,14.376 737.61,12.09 739.086,10.422C740.562,8.754 742.56,7.92 745.08,7.92C746.4,7.92 747.582,8.208 748.626,8.784C749.67,9.36 750.48,10.128 751.056,11.088L751.056,0L753.936,0ZM745.404,24.12C747.132,24.12 748.506,23.52 749.526,22.32C750.546,21.12 751.056,19.512 751.056,17.496L751.056,17.064C751.056,15.048 750.546,13.44 749.526,12.24C748.506,11.04 747.132,10.44 745.404,10.44C743.652,10.44 742.272,11.058 741.264,12.294C740.256,13.53 739.752,15.192 739.752,17.28C739.752,19.368 740.256,21.03 741.264,22.266C742.272,23.502 743.652,24.12 745.404,24.12Z" style="fill:rgb(160,160,160);fill-rule:nonzero;"/>
                <path d="M786.876,16.344C786.876,17.016 786.828,17.688 786.732,18.36L773.16,18.36C773.328,20.184 773.934,21.6 774.978,22.608C776.022,23.616 777.372,24.12 779.028,24.12C780.348,24.12 781.446,23.892 782.322,23.436C783.198,22.98 783.792,22.32 784.104,21.456L786.516,22.716C785.796,23.988 784.836,24.96 783.636,25.632C782.436,26.304 780.9,26.64 779.028,26.64C776.316,26.64 774.186,25.812 772.638,24.156C771.09,22.5 770.316,20.208 770.316,17.28C770.316,14.352 771.054,12.06 772.53,10.404C774.006,8.748 776.1,7.92 778.812,7.92C780.492,7.92 781.944,8.292 783.168,9.036C784.392,9.78 785.316,10.788 785.94,12.06C786.564,13.332 786.876,14.76 786.876,16.344ZM778.812,10.44C777.228,10.44 775.95,10.908 774.978,11.844C774.006,12.78 773.412,14.1 773.196,15.804L784.104,15.804C783.912,14.124 783.36,12.81 782.448,11.862C781.536,10.914 780.324,10.44 778.812,10.44Z" style="fill:rgb(160,160,160);fill-rule:nonzero;"/>
                <path d="M809.268,26.64C807.54,26.64 805.98,26.298 804.588,25.614C803.196,24.93 802.176,23.916 801.528,22.572L803.868,20.952C804.276,22.008 804.984,22.8 805.992,23.328C807,23.856 808.188,24.12 809.556,24.12C810.972,24.12 812.052,23.868 812.796,23.364C813.54,22.86 813.912,22.224 813.912,21.456C813.912,20.76 813.564,20.202 812.868,19.782C812.172,19.362 810.948,18.996 809.196,18.684C807.468,18.372 806.1,17.994 805.092,17.55C804.084,17.106 803.352,16.542 802.896,15.858C802.44,15.174 802.212,14.328 802.212,13.32C802.212,12.336 802.5,11.436 803.076,10.62C803.652,9.804 804.48,9.15 805.56,8.658C806.64,8.166 807.888,7.92 809.304,7.92C811.224,7.92 812.766,8.274 813.93,8.982C815.094,9.69 815.928,10.776 816.432,12.24L813.984,13.68C813.6,12.528 813.018,11.7 812.238,11.196C811.458,10.692 810.48,10.44 809.304,10.44C808.128,10.44 807.132,10.704 806.316,11.232C805.5,11.76 805.092,12.372 805.092,13.068C805.092,13.86 805.446,14.472 806.154,14.904C806.862,15.336 808.128,15.708 809.952,16.02C812.448,16.428 814.212,17.04 815.244,17.856C816.276,18.672 816.792,19.824 816.792,21.312C816.792,22.344 816.486,23.262 815.874,24.066C815.262,24.87 814.386,25.5 813.246,25.956C812.106,26.412 810.78,26.64 809.268,26.64Z" style="fill:rgb(160,160,160);fill-rule:nonzero;"/>
                <path d="M834.36,4.824C833.712,4.824 833.19,4.626 832.794,4.23C832.398,3.834 832.2,3.312 832.2,2.664C832.2,2.016 832.398,1.494 832.794,1.098C833.19,0.702 833.712,0.504 834.36,0.504C835.008,0.504 835.53,0.702 835.926,1.098C836.322,1.494 836.52,2.016 836.52,2.664C836.52,3.312 836.322,3.834 835.926,4.23C835.53,4.626 835.008,4.824 834.36,4.824ZM835.8,26.28L832.92,26.28L832.92,8.28L835.8,8.28L835.8,26.28Z" style="fill:rgb(160,160,160);fill-rule:nonzero;"/>
                <path d="M863.34,23.976C865.044,23.976 866.376,24.36 867.336,25.128C868.296,25.896 868.776,26.94 868.776,28.26C868.776,29.412 868.38,30.426 867.588,31.302C866.796,32.178 865.722,32.85 864.366,33.318C863.01,33.786 861.516,34.02 859.884,34.02C857.148,34.02 855.084,33.582 853.692,32.706C852.3,31.83 851.604,30.684 851.604,29.268C851.604,28.452 851.886,27.732 852.45,27.108C853.014,26.484 853.788,26.04 854.772,25.776C854.028,25.416 853.434,24.96 852.99,24.408C852.546,23.856 852.324,23.208 852.324,22.464C852.324,21.576 852.564,20.838 853.044,20.25C853.524,19.662 854.184,19.224 855.024,18.936C854.16,18.408 853.506,17.718 853.062,16.866C852.618,16.014 852.396,15.06 852.396,14.004C852.396,12.828 852.708,11.778 853.332,10.854C853.956,9.93 854.832,9.21 855.96,8.694C857.088,8.178 858.36,7.92 859.776,7.92C861.12,7.92 862.344,8.16 863.448,8.64C864.12,6.192 865.812,4.968 868.524,4.968L869.172,7.488C866.82,7.488 865.392,8.148 864.888,9.468C865.608,10.02 866.166,10.68 866.562,11.448C866.958,12.216 867.156,13.068 867.156,14.004C867.156,15.18 866.844,16.23 866.22,17.154C865.596,18.078 864.72,18.798 863.592,19.314C862.464,19.83 861.192,20.088 859.776,20.088C858.72,20.088 857.796,19.98 857.004,19.764C856.284,19.932 855.768,20.196 855.456,20.556C855.144,20.916 854.988,21.408 854.988,22.032C854.988,22.656 855.204,23.136 855.636,23.472C856.068,23.808 856.644,23.976 857.364,23.976L863.34,23.976ZM859.776,10.26C858.528,10.26 857.484,10.608 856.644,11.304C855.804,12 855.384,12.9 855.384,14.004C855.384,15.108 855.804,16.008 856.644,16.704C857.484,17.4 858.528,17.748 859.776,17.748C861.024,17.748 862.068,17.4 862.908,16.704C863.748,16.008 864.168,15.108 864.168,14.004C864.168,12.9 863.748,12 862.908,11.304C862.068,10.608 861.024,10.26 859.776,10.26ZM860.208,31.608C862.032,31.608 863.472,31.314 864.528,30.726C865.584,30.138 866.112,29.424 866.112,28.584C866.112,27.888 865.842,27.36 865.302,27C864.762,26.64 863.844,26.46 862.548,26.46L857.724,26.46C856.62,26.46 855.768,26.658 855.168,27.054C854.568,27.45 854.268,27.996 854.268,28.692C854.268,29.604 854.772,30.318 855.78,30.834C856.788,31.35 858.264,31.608 860.208,31.608Z" style="fill:rgb(160,160,160);fill-rule:nonzero;"/>
                <path d="M892.608,7.92C894.648,7.92 896.328,8.508 897.648,9.684C898.968,10.86 899.628,12.552 899.628,14.76L899.628,26.28L896.748,26.28L896.748,15.768C896.748,13.896 896.346,12.54 895.542,11.7C894.738,10.86 893.664,10.44 892.32,10.44C891.36,10.44 890.46,10.65 889.62,11.07C888.78,11.49 888.09,12.174 887.55,13.122C887.01,14.07 886.74,15.264 886.74,16.704L886.74,26.28L883.86,26.28L883.86,8.28L886.38,8.28L886.56,11.088C887.16,10.008 887.988,9.21 889.044,8.694C890.1,8.178 891.288,7.92 892.608,7.92Z" style="fill:rgb(160,160,160);fill-rule:nonzero;"/>
                <path d="M932.388,16.344C932.388,17.016 932.34,17.688 932.244,18.36L918.672,18.36C918.84,20.184 919.446,21.6 920.49,22.608C921.534,23.616 922.884,24.12 924.54,24.12C925.86,24.12 926.958,23.892 927.834,23.436C928.71,22.98 929.304,22.32 929.616,21.456L932.028,22.716C931.308,23.988 930.348,24.96 929.148,25.632C927.948,26.304 926.412,26.64 924.54,26.64C921.828,26.64 919.698,25.812 918.15,24.156C916.602,22.5 915.828,20.208 915.828,17.28C915.828,14.352 916.566,12.06 918.042,10.404C919.518,8.748 921.612,7.92 924.324,7.92C926.004,7.92 927.456,8.292 928.68,9.036C929.904,9.78 930.828,10.788 931.452,12.06C932.076,13.332 932.388,14.76 932.388,16.344ZM924.324,10.44C922.74,10.44 921.462,10.908 920.49,11.844C919.518,12.78 918.924,14.1 918.708,15.804L929.616,15.804C929.424,14.124 928.872,12.81 927.96,11.862C927.048,10.914 925.836,10.44 924.324,10.44Z" style="fill:rgb(160,160,160);fill-rule:nonzero;"/>
                <path d="M957.156,7.92C958.02,7.92 958.68,8.04 959.136,8.28L958.56,11.088C957.984,10.776 957.228,10.62 956.292,10.62C955.524,10.62 954.774,10.842 954.042,11.286C953.31,11.73 952.71,12.402 952.242,13.302C951.774,14.202 951.54,15.288 951.54,16.56L951.54,26.28L948.66,26.28L948.66,8.28L951,8.28L951.396,11.232C952.404,9.024 954.324,7.92 957.156,7.92Z" style="fill:rgb(160,160,160);fill-rule:nonzero;"/>
            </g>
        </g>
    </g>
</svg>
