<?xml version="1.0" encoding="UTF-8" standalone="no"?><!DOCTYPE svg PUBLIC "-//W3C//DTD SVG 1.1//EN" "http://www.w3.org/Graphics/SVG/1.1/DTD/svg11.dtd"><svg width="100%" height="100%" viewBox="0 0 960 160" version="1.1" xmlns="http://www.w3.org/2000/svg" xmlns:xlink="http://www.w3.org/1999/xlink" xml:space="preserve" xmlns:serif="http://www.serif.com/" style="fill-rule:evenodd;clip-rule:evenodd;stroke-linejoin:round;stroke-miterlimit:1.41421;"><rect id="Full-Colors" serif:id="Full Colors" x="0" y="0" width="960" height="160" style="fill:none;"/><clipPath id="_clip1"><rect x="0" y="0" width="960" height="160"/></clipPath><g clip-path="url(#_clip1)"><g transform="matrix(1,0,0,1,-12.7075,0.317317)"><path d="M39.06,67.62l-14.84,14.84l0,19.74l-11.2,0l0,-102.2l11.2,0l0,68.46l36.26,-36.26l14,0l-27.3,27.3l28.98,42.7l-13.58,0l-23.52,-34.58Z" style="fill:#0cf;fill-rule:nonzero;"/><path d="M174.983,63.56c0,2.613 -0.187,5.227 -0.56,7.84l-52.78,0c0.653,7.093 3.01,12.6 7.07,16.52c4.06,3.92 9.31,5.88 15.75,5.88c5.133,0 9.403,-0.887 12.81,-2.66c3.407,-1.773 5.717,-4.34 6.93,-7.7l9.38,4.9c-2.8,4.947 -6.533,8.727 -11.2,11.34c-4.667,2.613 -10.64,3.92 -17.92,3.92c-10.547,0 -18.83,-3.22 -24.85,-9.66c-6.02,-6.44 -9.03,-15.353 -9.03,-26.74c0,-11.387 2.87,-20.3 8.61,-26.74c5.74,-6.44 13.883,-9.66 24.43,-9.66c6.533,0 12.18,1.447 16.94,4.34c4.76,2.893 8.353,6.813 10.78,11.76c2.427,4.947 3.64,10.5 3.64,16.66Zm-31.36,-22.96c-6.16,0 -11.13,1.82 -14.91,5.46c-3.78,3.64 -6.09,8.773 -6.93,15.4l42.42,0c-0.747,-6.533 -2.893,-11.643 -6.44,-15.33c-3.547,-3.687 -8.26,-5.53 -14.14,-5.53Z" style="fill:#0cf;fill-rule:nonzero;"/><path d="M277.446,32.2l-29.12,70l-11.2,0l-29.12,-70l12.74,0l22.12,58.66l22.82,-58.66l11.76,0Z" style="fill:#0cf;fill-rule:nonzero;"/><path d="M322.789,18.76c-2.52,0 -4.55,-0.77 -6.09,-2.31c-1.54,-1.54 -2.31,-3.57 -2.31,-6.09c0,-2.52 0.77,-4.55 2.31,-6.09c1.54,-1.54 3.57,-2.31 6.09,-2.31c2.52,0 4.55,0.77 6.09,2.31c1.54,1.54 2.31,3.57 2.31,6.09c0,2.52 -0.77,4.55 -2.31,6.09c-1.54,1.54 -3.57,2.31 -6.09,2.31Zm5.6,83.44l-11.2,0l0,-70l11.2,0l0,70Z" style="fill:#0cf;fill-rule:nonzero;"/><path d="M413.492,30.8c7.934,0 14.467,2.287 19.6,6.86c5.134,4.573 7.7,11.153 7.7,19.74l0,44.8l-11.2,0l0,-40.88c0,-7.28 -1.563,-12.553 -4.69,-15.82c-3.126,-3.267 -7.303,-4.9 -12.53,-4.9c-3.733,0 -7.233,0.817 -10.5,2.45c-3.266,1.633 -5.95,4.293 -8.05,7.98c-2.1,3.687 -3.15,8.33 -3.15,13.93l0,37.24l-11.2,0l0,-70l9.8,0l0.7,10.92c2.334,-4.2 5.554,-7.303 9.66,-9.31c4.107,-2.007 8.727,-3.01 13.86,-3.01Z" style="fill:#0cf;fill-rule:nonzero;"/><path d="M584.975,32.2l-23.52,70l-3.92,0l-23.94,-64.82l-23.8,64.82l-3.92,0l-23.38,-70l4.2,0l21.28,65.1l23.66,-65.1l4.06,0l23.8,65.1l21.14,-65.1l4.34,0Z" style="fill:#c0c0c0;fill-rule:nonzero;"/><path d="M681.698,69.3l-57.54,0c0.374,9.707 3.057,17.267 8.05,22.68c4.994,5.413 11.83,8.12 20.51,8.12c5.694,0 10.78,-1.283 15.26,-3.85c4.48,-2.567 7.794,-6.137 9.94,-10.71l3.22,1.68c-2.52,5.133 -6.253,9.147 -11.2,12.04c-4.946,2.893 -10.686,4.34 -17.22,4.34c-10.173,0 -18.13,-3.22 -23.87,-9.66c-5.74,-6.44 -8.61,-15.353 -8.61,-26.74c0,-11.387 2.8,-20.3 8.4,-26.74c5.6,-6.44 13.347,-9.66 23.24,-9.66c9.427,0 16.777,3.243 22.05,9.73c5.274,6.487 7.91,15.283 7.91,26.39l-0.14,2.38Zm-29.82,-35.14c-8.493,0 -15.19,2.777 -20.09,8.33c-4.9,5.553 -7.443,13.277 -7.63,23.17l54.04,0c-0.28,-9.893 -2.683,-17.617 -7.21,-23.17c-4.526,-5.553 -10.896,-8.33 -19.11,-8.33Z" style="fill:#c0c0c0;fill-rule:nonzero;"/><path d="M757.421,30.8c9.987,0 17.827,3.22 23.52,9.66c5.694,6.44 8.54,15.353 8.54,26.74c0,11.387 -2.846,20.3 -8.54,26.74c-5.693,6.44 -13.533,9.66 -23.52,9.66c-6.906,0 -12.763,-1.797 -17.57,-5.39c-4.806,-3.593 -8.143,-8.563 -10.01,-14.91l-0.14,18.9l-3.64,0l0,-102.2l3.92,0l0,50.68c1.867,-6.253 5.204,-11.13 10.01,-14.63c4.807,-3.5 10.617,-5.25 17.43,-5.25Zm-0.56,69.3c9.054,0 16.1,-2.893 21.14,-8.68c5.04,-5.787 7.56,-13.86 7.56,-24.22c0,-10.36 -2.52,-18.457 -7.56,-24.29c-5.04,-5.833 -12.086,-8.75 -21.14,-8.75c-8.213,0 -14.746,2.917 -19.6,8.75c-4.853,5.833 -7.28,13.743 -7.28,23.73l0,1.12c0,9.987 2.427,17.873 7.28,23.66c4.854,5.787 11.387,8.68 19.6,8.68Z" style="fill:#c0c0c0;fill-rule:nonzero;"/><path d="M890.824,69.3l-57.54,0c0.374,9.707 3.057,17.267 8.05,22.68c4.994,5.413 11.83,8.12 20.51,8.12c5.694,0 10.78,-1.283 15.26,-3.85c4.48,-2.567 7.794,-6.137 9.94,-10.71l3.22,1.68c-2.52,5.133 -6.253,9.147 -11.2,12.04c-4.946,2.893 -10.686,4.34 -17.22,4.34c-10.173,0 -18.13,-3.22 -23.87,-9.66c-5.74,-6.44 -8.61,-15.353 -8.61,-26.74c0,-11.387 2.8,-20.3 8.4,-26.74c5.6,-6.44 13.347,-9.66 23.24,-9.66c9.427,0 16.777,3.243 22.05,9.73c5.274,6.487 7.91,15.283 7.91,26.39l-0.14,2.38Zm-29.82,-35.14c-8.493,0 -15.19,2.777 -20.09,8.33c-4.9,5.553 -7.443,13.277 -7.63,23.17l54.04,0c-0.28,-9.893 -2.683,-17.617 -7.21,-23.17c-4.526,-5.553 -10.896,-8.33 -19.11,-8.33Z" style="fill:#c0c0c0;fill-rule:nonzero;"/><path d="M961.787,30.8c4.2,0 7.374,0.98 9.52,2.94l-1.4,3.5c-1.12,-0.933 -2.333,-1.657 -3.64,-2.17c-1.306,-0.513 -3.08,-0.77 -5.32,-0.77c-4.013,0 -7.676,1.26 -10.99,3.78c-3.313,2.52 -5.95,5.927 -7.91,10.22c-1.96,4.293 -2.94,8.867 -2.94,13.72l0,40.18l-3.92,0l0,-70l3.5,0l0.28,16.66c1.774,-5.413 4.667,-9.777 8.68,-13.09c4.014,-3.313 8.727,-4.97 14.14,-4.97Z" style="fill:#c0c0c0;fill-rule:nonzero;"/></g><path d="M18.288,142l-7.488,18l-2.88,0l-7.488,-18l3.276,0l5.688,15.084l5.868,-15.084l3.024,0Z" style="fill:#a0a0a0;fill-rule:nonzero;"/><path d="M34.308,138.544c-0.648,0 -1.17,-0.198 -1.566,-0.594c-0.396,-0.396 -0.594,-0.918 -0.594,-1.566c0,-0.648 0.198,-1.17 0.594,-1.566c0.396,-0.396 0.918,-0.594 1.566,-0.594c0.648,0 1.17,0.198 1.566,0.594c0.396,0.396 0.594,0.918 0.594,1.566c0,0.648 -0.198,1.17 -0.594,1.566c-0.396,0.396 -0.918,0.594 -1.566,0.594Zm1.44,21.456l-2.88,0l0,-18l2.88,0l0,18Z" style="fill:#a0a0a0;fill-rule:nonzero;"/><path d="M59.364,160.36c-1.728,0 -3.288,-0.342 -4.68,-1.026c-1.392,-0.684 -2.412,-1.698 -3.06,-3.042l2.34,-1.62c0.408,1.056 1.116,1.848 2.124,2.376c1.008,0.528 2.196,0.792 3.564,0.792c1.416,0 2.496,-0.252 3.24,-0.756c0.744,-0.504 1.116,-1.14 1.116,-1.908c0,-0.696 -0.348,-1.254 -1.044,-1.674c-0.696,-0.42 -1.92,-0.786 -3.672,-1.098c-1.728,-0.312 -3.096,-0.69 -4.104,-1.134c-1.008,-0.444 -1.74,-1.008 -2.196,-1.692c-0.456,-0.684 -0.684,-1.53 -0.684,-2.538c0,-0.984 0.288,-1.884 0.864,-2.7c0.576,-0.816 1.404,-1.47 2.484,-1.962c1.08,-0.492 2.328,-0.738 3.744,-0.738c1.92,0 3.462,0.354 4.626,1.062c1.164,0.708 1.998,1.794 2.502,3.258l-2.448,1.44c-0.384,-1.152 -0.966,-1.98 -1.746,-2.484c-0.78,-0.504 -1.758,-0.756 -2.934,-0.756c-1.176,0 -2.172,0.264 -2.988,0.792c-0.816,0.528 -1.224,1.14 -1.224,1.836c0,0.792 0.354,1.404 1.062,1.836c0.708,0.432 1.974,0.804 3.798,1.116c2.496,0.408 4.26,1.02 5.292,1.836c1.032,0.816 1.548,1.968 1.548,3.456c0,1.032 -0.306,1.95 -0.918,2.754c-0.612,0.804 -1.488,1.434 -2.628,1.89c-1.14,0.456 -2.466,0.684 -3.978,0.684Z" style="fill:#a0a0a0;fill-rule:nonzero;"/><path d="M98.604,142l0,18l-2.52,0l-0.18,-2.736c-1.2,2.064 -3.348,3.096 -6.444,3.096c-1.944,0 -3.534,-0.54 -4.77,-1.62c-1.236,-1.08 -1.854,-2.736 -1.854,-4.968l0,-11.772l2.88,0l0,11.016c0,1.752 0.36,2.994 1.08,3.726c0.72,0.732 1.776,1.098 3.168,1.098c1.656,0 3.03,-0.504 4.122,-1.512c1.092,-1.008 1.638,-2.52 1.638,-4.536l0,-9.792l2.88,0Z" style="fill:#a0a0a0;fill-rule:nonzero;"/><path d="M130.86,157.912c0.48,0 0.96,-0.06 1.44,-0.18l-0.18,2.268c-0.672,0.24 -1.392,0.36 -2.16,0.36c-0.936,0 -1.674,-0.204 -2.214,-0.612c-0.54,-0.408 -0.882,-1.092 -1.026,-2.052c-0.552,0.84 -1.362,1.494 -2.43,1.962c-1.068,0.468 -2.19,0.702 -3.366,0.702c-1.776,0 -3.24,-0.414 -4.392,-1.242c-1.152,-0.828 -1.728,-2.022 -1.728,-3.582c0,-1.368 0.6,-2.55 1.8,-3.546c1.2,-0.996 2.94,-1.686 5.22,-2.07l4.788,-0.792l0,-1.008c0,-1.2 -0.372,-2.16 -1.116,-2.88c-0.744,-0.72 -1.776,-1.08 -3.096,-1.08c-1.2,0 -2.238,0.288 -3.114,0.864c-0.876,0.576 -1.554,1.428 -2.034,2.556l-2.124,-1.548c0.48,-1.344 1.374,-2.412 2.682,-3.204c1.308,-0.792 2.838,-1.188 4.59,-1.188c2.136,0 3.852,0.516 5.148,1.548c1.296,1.032 1.944,2.556 1.944,4.572l0,8.856c0,0.432 0.108,0.756 0.324,0.972c0.216,0.216 0.564,0.324 1.044,0.324Zm-9.792,-0.072c1.512,0 2.814,-0.36 3.906,-1.08c1.092,-0.72 1.638,-1.656 1.638,-2.808l0,-2.484l-4.032,0.756c-1.608,0.288 -2.808,0.702 -3.6,1.242c-0.792,0.54 -1.188,1.23 -1.188,2.07c0,0.744 0.288,1.314 0.864,1.71c0.576,0.396 1.38,0.594 2.412,0.594Z" style="fill:#a0a0a0;fill-rule:nonzero;"/><path d="M150.012,155.176c0,0.912 0.138,1.542 0.414,1.89c0.276,0.348 0.786,0.522 1.53,0.522c0.504,0 0.942,-0.036 1.314,-0.108c0.372,-0.072 0.81,-0.204 1.314,-0.396l-0.468,2.772c-0.792,0.336 -1.68,0.504 -2.664,0.504c-1.464,0 -2.55,-0.396 -3.258,-1.188c-0.708,-0.792 -1.062,-2.004 -1.062,-3.636l0,-21.816l2.88,0l0,21.456Z" style="fill:#a0a0a0;fill-rule:nonzero;"/><path d="M214.557,150.064c0,0.672 -0.048,1.344 -0.144,2.016l-13.572,0c0.168,1.824 0.774,3.24 1.818,4.248c1.044,1.008 2.394,1.512 4.05,1.512c1.32,0 2.418,-0.228 3.294,-0.684c0.876,-0.456 1.47,-1.116 1.782,-1.98l2.412,1.26c-0.72,1.272 -1.68,2.244 -2.88,2.916c-1.2,0.672 -2.736,1.008 -4.608,1.008c-2.712,0 -4.842,-0.828 -6.39,-2.484c-1.548,-1.656 -2.322,-3.948 -2.322,-6.876c0,-2.928 0.738,-5.22 2.214,-6.876c1.476,-1.656 3.57,-2.484 6.282,-2.484c1.68,0 3.132,0.372 4.356,1.116c1.224,0.744 2.148,1.752 2.772,3.024c0.624,1.272 0.936,2.7 0.936,4.284Zm-8.064,-5.904c-1.584,0 -2.862,0.468 -3.834,1.404c-0.972,0.936 -1.566,2.256 -1.782,3.96l10.908,0c-0.192,-1.68 -0.744,-2.994 -1.656,-3.942c-0.912,-0.948 -2.124,-1.422 -3.636,-1.422Z" style="fill:#a0a0a0;fill-rule:nonzero;"/><path d="M234.933,142l6.012,0l0,2.484l-6.012,0l0,15.516l-2.88,0l0,-15.516l-3.6,0l0,-2.484l3.6,0l0,-3.024c0,-1.656 0.504,-2.976 1.512,-3.96c1.008,-0.984 2.472,-1.476 4.392,-1.476c0.648,0 1.242,0.072 1.782,0.216c0.54,0.144 0.966,0.348 1.278,0.612l-0.756,2.34c-0.576,-0.36 -1.26,-0.54 -2.052,-0.54c-2.184,0 -3.276,1.032 -3.276,3.096l0,2.736Z" style="fill:#a0a0a0;fill-rule:nonzero;"/><path d="M257.361,142l6.012,0l0,2.484l-6.012,0l0,15.516l-2.88,0l0,-15.516l-3.6,0l0,-2.484l3.6,0l0,-3.024c0,-1.656 0.504,-2.976 1.512,-3.96c1.008,-0.984 2.472,-1.476 4.392,-1.476c0.648,0 1.242,0.072 1.782,0.216c0.54,0.144 0.966,0.348 1.278,0.612l-0.756,2.34c-0.576,-0.36 -1.26,-0.54 -2.052,-0.54c-2.184,0 -3.276,1.032 -3.276,3.096l0,2.736Z" style="fill:#a0a0a0;fill-rule:nonzero;"/><path d="M292.965,150.064c0,0.672 -0.048,1.344 -0.144,2.016l-13.572,0c0.168,1.824 0.774,3.24 1.818,4.248c1.044,1.008 2.394,1.512 4.05,1.512c1.32,0 2.418,-0.228 3.294,-0.684c0.876,-0.456 1.47,-1.116 1.782,-1.98l2.412,1.26c-0.72,1.272 -1.68,2.244 -2.88,2.916c-1.2,0.672 -2.736,1.008 -4.608,1.008c-2.712,0 -4.842,-0.828 -6.39,-2.484c-1.548,-1.656 -2.322,-3.948 -2.322,-6.876c0,-2.928 0.738,-5.22 2.214,-6.876c1.476,-1.656 3.57,-2.484 6.282,-2.484c1.68,0 3.132,0.372 4.356,1.116c1.224,0.744 2.148,1.752 2.772,3.024c0.624,1.272 0.936,2.7 0.936,4.284Zm-8.064,-5.904c-1.584,0 -2.862,0.468 -3.834,1.404c-0.972,0.936 -1.566,2.256 -1.782,3.96l10.908,0c-0.192,-1.68 -0.744,-2.994 -1.656,-3.942c-0.912,-0.948 -2.124,-1.422 -3.636,-1.422Z" style="fill:#a0a0a0;fill-rule:nonzero;"/><path d="M316.833,141.64c1.8,0 3.318,0.414 4.554,1.242c1.236,0.828 2.202,2.01 2.898,3.546l-2.736,1.296c-0.768,-2.376 -2.364,-3.564 -4.788,-3.564c-1.8,0 -3.21,0.606 -4.23,1.818c-1.02,1.212 -1.53,2.886 -1.53,5.022c0,2.136 0.51,3.81 1.53,5.022c1.02,1.212 2.43,1.818 4.23,1.818c1.392,0 2.514,-0.318 3.366,-0.954c0.852,-0.636 1.41,-1.554 1.674,-2.754l2.664,0.936c-0.624,1.68 -1.584,2.982 -2.88,3.906c-1.296,0.924 -2.88,1.386 -4.752,1.386c-2.712,0 -4.842,-0.828 -6.39,-2.484c-1.548,-1.656 -2.322,-3.948 -2.322,-6.876c0,-2.928 0.774,-5.22 2.322,-6.876c1.548,-1.656 3.678,-2.484 6.39,-2.484Z" style="fill:#a0a0a0;fill-rule:nonzero;"/><path d="M351.357,158.74c-1.2,1.08 -2.748,1.62 -4.644,1.62c-1.464,0 -2.658,-0.396 -3.582,-1.188c-0.924,-0.792 -1.398,-2.004 -1.422,-3.636l0,-11.052l-3.6,0l0,-2.484l3.6,0l0,-4.32l2.88,-0.792l0,5.112l6.66,0l0,2.484l-6.66,0l0,10.548c0,0.864 0.246,1.518 0.738,1.962c0.492,0.444 1.146,0.666 1.962,0.666c1.152,0 2.172,-0.444 3.06,-1.332l1.008,2.412Z" style="fill:#a0a0a0;fill-rule:nonzero;"/><path d="M372.345,160.36c-1.728,0 -3.288,-0.342 -4.68,-1.026c-1.392,-0.684 -2.412,-1.698 -3.06,-3.042l2.34,-1.62c0.408,1.056 1.116,1.848 2.124,2.376c1.008,0.528 2.196,0.792 3.564,0.792c1.416,0 2.496,-0.252 3.24,-0.756c0.744,-0.504 1.116,-1.14 1.116,-1.908c0,-0.696 -0.348,-1.254 -1.044,-1.674c-0.696,-0.42 -1.92,-0.786 -3.672,-1.098c-1.728,-0.312 -3.096,-0.69 -4.104,-1.134c-1.008,-0.444 -1.74,-1.008 -2.196,-1.692c-0.456,-0.684 -0.684,-1.53 -0.684,-2.538c0,-0.984 0.288,-1.884 0.864,-2.7c0.576,-0.816 1.404,-1.47 2.484,-1.962c1.08,-0.492 2.328,-0.738 3.744,-0.738c1.92,0 3.462,0.354 4.626,1.062c1.164,0.708 1.998,1.794 2.502,3.258l-2.448,1.44c-0.384,-1.152 -0.966,-1.98 -1.746,-2.484c-0.78,-0.504 -1.758,-0.756 -2.934,-0.756c-1.176,0 -2.172,0.264 -2.988,0.792c-0.816,0.528 -1.224,1.14 -1.224,1.836c0,0.792 0.354,1.404 1.062,1.836c0.708,0.432 1.974,0.804 3.798,1.116c2.496,0.408 4.26,1.02 5.292,1.836c1.032,0.816 1.548,1.968 1.548,3.456c0,1.032 -0.306,1.95 -0.918,2.754c-0.612,0.804 -1.488,1.434 -2.628,1.89c-1.14,0.456 -2.466,0.684 -3.978,0.684Z" style="fill:#a0a0a0;fill-rule:nonzero;"/><path d="M442.038,157.912c0.48,0 0.96,-0.06 1.44,-0.18l-0.18,2.268c-0.672,0.24 -1.392,0.36 -2.16,0.36c-0.936,0 -1.674,-0.204 -2.214,-0.612c-0.54,-0.408 -0.882,-1.092 -1.026,-2.052c-0.552,0.84 -1.362,1.494 -2.43,1.962c-1.068,0.468 -2.19,0.702 -3.366,0.702c-1.776,0 -3.24,-0.414 -4.392,-1.242c-1.152,-0.828 -1.728,-2.022 -1.728,-3.582c0,-1.368 0.6,-2.55 1.8,-3.546c1.2,-0.996 2.94,-1.686 5.22,-2.07l4.788,-0.792l0,-1.008c0,-1.2 -0.372,-2.16 -1.116,-2.88c-0.744,-0.72 -1.776,-1.08 -3.096,-1.08c-1.2,0 -2.238,0.288 -3.114,0.864c-0.876,0.576 -1.554,1.428 -2.034,2.556l-2.124,-1.548c0.48,-1.344 1.374,-2.412 2.682,-3.204c1.308,-0.792 2.838,-1.188 4.59,-1.188c2.136,0 3.852,0.516 5.148,1.548c1.296,1.032 1.944,2.556 1.944,4.572l0,8.856c0,0.432 0.108,0.756 0.324,0.972c0.216,0.216 0.564,0.324 1.044,0.324Zm-9.792,-0.072c1.512,0 2.814,-0.36 3.906,-1.08c1.092,-0.72 1.638,-1.656 1.638,-2.808l0,-2.484l-4.032,0.756c-1.608,0.288 -2.808,0.702 -3.6,1.242c-0.792,0.54 -1.188,1.23 -1.188,2.07c0,0.744 0.288,1.314 0.864,1.71c0.576,0.396 1.38,0.594 2.412,0.594Z" style="fill:#a0a0a0;fill-rule:nonzero;"/><path d="M466.95,141.64c0.864,0 1.524,0.12 1.98,0.36l-0.576,2.808c-0.576,-0.312 -1.332,-0.468 -2.268,-0.468c-0.768,0 -1.518,0.222 -2.25,0.666c-0.732,0.444 -1.332,1.116 -1.8,2.016c-0.468,0.9 -0.702,1.986 -0.702,3.258l0,9.72l-2.88,0l0,-18l2.34,0l0.396,2.952c1.008,-2.208 2.928,-3.312 5.76,-3.312Z" style="fill:#a0a0a0;fill-rule:nonzero;"/><path d="M493.878,158.74c-1.2,1.08 -2.748,1.62 -4.644,1.62c-1.464,0 -2.658,-0.396 -3.582,-1.188c-0.924,-0.792 -1.398,-2.004 -1.422,-3.636l0,-11.052l-3.6,0l0,-2.484l3.6,0l0,-4.32l2.88,-0.792l0,5.112l6.66,0l0,2.484l-6.66,0l0,10.548c0,0.864 0.246,1.518 0.738,1.962c0.492,0.444 1.146,0.666 1.962,0.666c1.152,0 2.172,-0.444 3.06,-1.332l1.008,2.412Z" style="fill:#a0a0a0;fill-rule:nonzero;"/><path d="M510.186,138.544c-0.648,0 -1.17,-0.198 -1.566,-0.594c-0.396,-0.396 -0.594,-0.918 -0.594,-1.566c0,-0.648 0.198,-1.17 0.594,-1.566c0.396,-0.396 0.918,-0.594 1.566,-0.594c0.648,0 1.17,0.198 1.566,0.594c0.396,0.396 0.594,0.918 0.594,1.566c0,0.648 -0.198,1.17 -0.594,1.566c-0.396,0.396 -0.918,0.594 -1.566,0.594Zm1.44,21.456l-2.88,0l0,-18l2.88,0l0,18Z" style="fill:#a0a0a0;fill-rule:nonzero;"/><path d="M535.242,160.36c-1.728,0 -3.288,-0.342 -4.68,-1.026c-1.392,-0.684 -2.412,-1.698 -3.06,-3.042l2.34,-1.62c0.408,1.056 1.116,1.848 2.124,2.376c1.008,0.528 2.196,0.792 3.564,0.792c1.416,0 2.496,-0.252 3.24,-0.756c0.744,-0.504 1.116,-1.14 1.116,-1.908c0,-0.696 -0.348,-1.254 -1.044,-1.674c-0.696,-0.42 -1.92,-0.786 -3.672,-1.098c-1.728,-0.312 -3.096,-0.69 -4.104,-1.134c-1.008,-0.444 -1.74,-1.008 -2.196,-1.692c-0.456,-0.684 -0.684,-1.53 -0.684,-2.538c0,-0.984 0.288,-1.884 0.864,-2.7c0.576,-0.816 1.404,-1.47 2.484,-1.962c1.08,-0.492 2.328,-0.738 3.744,-0.738c1.92,0 3.462,0.354 4.626,1.062c1.164,0.708 1.998,1.794 2.502,3.258l-2.448,1.44c-0.384,-1.152 -0.966,-1.98 -1.746,-2.484c-0.78,-0.504 -1.758,-0.756 -2.934,-0.756c-1.176,0 -2.172,0.264 -2.988,0.792c-0.816,0.528 -1.224,1.14 -1.224,1.836c0,0.792 0.354,1.404 1.062,1.836c0.708,0.432 1.974,0.804 3.798,1.116c2.496,0.408 4.26,1.02 5.292,1.836c1.032,0.816 1.548,1.968 1.548,3.456c0,1.032 -0.306,1.95 -0.918,2.754c-0.612,0.804 -1.488,1.434 -2.628,1.89c-1.14,0.456 -2.466,0.684 -3.978,0.684Z" style="fill:#a0a0a0;fill-rule:nonzero;"/><path d="M569.91,158.74c-1.2,1.08 -2.748,1.62 -4.644,1.62c-1.464,0 -2.658,-0.396 -3.582,-1.188c-0.924,-0.792 -1.398,-2.004 -1.422,-3.636l0,-11.052l-3.6,0l0,-2.484l3.6,0l0,-4.32l2.88,-0.792l0,5.112l6.66,0l0,2.484l-6.66,0l0,10.548c0,0.864 0.246,1.518 0.738,1.962c0.492,0.444 1.146,0.666 1.962,0.666c1.152,0 2.172,-0.444 3.06,-1.332l1.008,2.412Z" style="fill:#a0a0a0;fill-rule:nonzero;"/><path d="M630.675,155.752c0.936,0.984 1.722,1.638 2.358,1.962c0.636,0.324 1.386,0.486 2.25,0.486l-0.72,2.16c-0.96,0 -1.824,-0.18 -2.592,-0.54c-0.768,-0.36 -1.716,-1.104 -2.844,-2.232c-0.936,0.888 -2.004,1.572 -3.204,2.052c-1.2,0.48 -2.508,0.72 -3.924,0.72c-1.464,0 -2.772,-0.264 -3.924,-0.792c-1.152,-0.528 -2.046,-1.26 -2.682,-2.196c-0.636,-0.936 -0.954,-1.992 -0.954,-3.168c0,-1.488 0.438,-2.814 1.314,-3.978c0.876,-1.164 2.334,-2.286 4.374,-3.366c-1.032,-1.344 -1.746,-2.412 -2.142,-3.204c-0.396,-0.792 -0.594,-1.632 -0.594,-2.52c0,-0.888 0.216,-1.734 0.648,-2.538c0.432,-0.804 1.068,-1.458 1.908,-1.962c0.84,-0.504 1.848,-0.756 3.024,-0.756c1.56,0 2.874,0.402 3.942,1.206c1.068,0.804 1.602,2.034 1.602,3.69c0,1.368 -0.318,2.556 -0.954,3.564c-0.636,1.008 -1.878,2.052 -3.726,3.132c0.408,0.552 1.2,1.548 2.376,2.988l1.296,1.62l1.584,1.908c1.008,-1.656 1.512,-3.588 1.512,-5.796c0,-0.432 -0.012,-0.756 -0.036,-0.972l2.304,0.288l0.036,0.864c0,1.344 -0.192,2.646 -0.576,3.906c-0.384,1.26 -0.936,2.418 -1.656,3.474Zm-7.74,-17.424c-0.912,0 -1.614,0.264 -2.106,0.792c-0.492,0.528 -0.738,1.188 -0.738,1.98c0,0.624 0.144,1.23 0.432,1.818c0.288,0.588 0.924,1.518 1.908,2.79c1.464,-0.792 2.418,-1.56 2.862,-2.304c0.444,-0.744 0.666,-1.596 0.666,-2.556c0,-1.68 -1.008,-2.52 -3.024,-2.52Zm-1.044,19.692c1.08,0 2.1,-0.18 3.06,-0.54c0.96,-0.36 1.824,-0.888 2.592,-1.584c-0.816,-0.888 -1.908,-2.184 -3.276,-3.888l-2.664,-3.276c-1.752,1.008 -2.934,1.902 -3.546,2.682c-0.612,0.78 -0.918,1.638 -0.918,2.574c0,1.152 0.468,2.112 1.404,2.88c0.936,0.768 2.052,1.152 3.348,1.152Z" style="fill:#a0a0a0;fill-rule:nonzero;"/><path d="M696.012,150.064c0,0.672 -0.048,1.344 -0.144,2.016l-13.572,0c0.168,1.824 0.774,3.24 1.818,4.248c1.044,1.008 2.394,1.512 4.05,1.512c1.32,0 2.418,-0.228 3.294,-0.684c0.876,-0.456 1.47,-1.116 1.782,-1.98l2.412,1.26c-0.72,1.272 -1.68,2.244 -2.88,2.916c-1.2,0.672 -2.736,1.008 -4.608,1.008c-2.712,0 -4.842,-0.828 -6.39,-2.484c-1.548,-1.656 -2.322,-3.948 -2.322,-6.876c0,-2.928 0.738,-5.22 2.214,-6.876c1.476,-1.656 3.57,-2.484 6.282,-2.484c1.68,0 3.132,0.372 4.356,1.116c1.224,0.744 2.148,1.752 2.772,3.024c0.624,1.272 0.936,2.7 0.936,4.284Zm-8.064,-5.904c-1.584,0 -2.862,0.468 -3.834,1.404c-0.972,0.936 -1.566,2.256 -1.782,3.96l10.908,0c-0.192,-1.68 -0.744,-2.994 -1.656,-3.942c-0.912,-0.948 -2.124,-1.422 -3.636,-1.422Z" style="fill:#a0a0a0;fill-rule:nonzero;"/><path d="M721.032,141.64c2.04,0 3.72,0.588 5.04,1.764c1.32,1.176 1.98,2.868 1.98,5.076l0,11.52l-2.88,0l0,-10.512c0,-1.872 -0.402,-3.228 -1.206,-4.068c-0.804,-0.84 -1.878,-1.26 -3.222,-1.26c-0.96,0 -1.86,0.21 -2.7,0.63c-0.84,0.42 -1.53,1.104 -2.07,2.052c-0.54,0.948 -0.81,2.142 -0.81,3.582l0,9.576l-2.88,0l0,-18l2.52,0l0.18,2.808c0.6,-1.08 1.428,-1.878 2.484,-2.394c1.056,-0.516 2.244,-0.774 3.564,-0.774Z" style="fill:#a0a0a0;fill-rule:nonzero;"/><path d="M756.132,158.74c-1.2,1.08 -2.748,1.62 -4.644,1.62c-1.464,0 -2.658,-0.396 -3.582,-1.188c-0.924,-0.792 -1.398,-2.004 -1.422,-3.636l0,-11.052l-3.6,0l0,-2.484l3.6,0l0,-4.32l2.88,-0.792l0,5.112l6.66,0l0,2.484l-6.66,0l0,10.548c0,0.864 0.246,1.518 0.738,1.962c0.492,0.444 1.146,0.666 1.962,0.666c1.152,0 2.172,-0.444 3.06,-1.332l1.008,2.412Z" style="fill:#a0a0a0;fill-rule:nonzero;"/><path d="M779.748,141.64c2.04,0 3.72,0.588 5.04,1.764c1.32,1.176 1.98,2.868 1.98,5.076l0,11.52l-2.88,0l0,-10.512c0,-1.872 -0.402,-3.228 -1.206,-4.068c-0.804,-0.84 -1.878,-1.26 -3.222,-1.26c-0.936,0 -1.83,0.216 -2.682,0.648c-0.852,0.432 -1.548,1.122 -2.088,2.07c-0.54,0.948 -0.81,2.142 -0.81,3.582l0,9.54l-2.88,0l0,-26.28l2.88,0l0,10.98c0.6,-1.032 1.41,-1.8 2.43,-2.304c1.02,-0.504 2.166,-0.756 3.438,-0.756Z" style="fill:#a0a0a0;fill-rule:nonzero;"/><path d="M819.672,142l0,18l-2.52,0l-0.18,-2.736c-1.2,2.064 -3.348,3.096 -6.444,3.096c-1.944,0 -3.534,-0.54 -4.77,-1.62c-1.236,-1.08 -1.854,-2.736 -1.854,-4.968l0,-11.772l2.88,0l0,11.016c0,1.752 0.36,2.994 1.08,3.726c0.72,0.732 1.776,1.098 3.168,1.098c1.656,0 3.03,-0.504 4.122,-1.512c1.092,-1.008 1.638,-2.52 1.638,-4.536l0,-9.792l2.88,0Z" style="fill:#a0a0a0;fill-rule:nonzero;"/><path d="M843.288,160.36c-1.728,0 -3.288,-0.342 -4.68,-1.026c-1.392,-0.684 -2.412,-1.698 -3.06,-3.042l2.34,-1.62c0.408,1.056 1.116,1.848 2.124,2.376c1.008,0.528 2.196,0.792 3.564,0.792c1.416,0 2.496,-0.252 3.24,-0.756c0.744,-0.504 1.116,-1.14 1.116,-1.908c0,-0.696 -0.348,-1.254 -1.044,-1.674c-0.696,-0.42 -1.92,-0.786 -3.672,-1.098c-1.728,-0.312 -3.096,-0.69 -4.104,-1.134c-1.008,-0.444 -1.74,-1.008 -2.196,-1.692c-0.456,-0.684 -0.684,-1.53 -0.684,-2.538c0,-0.984 0.288,-1.884 0.864,-2.7c0.576,-0.816 1.404,-1.47 2.484,-1.962c1.08,-0.492 2.328,-0.738 3.744,-0.738c1.92,0 3.462,0.354 4.626,1.062c1.164,0.708 1.998,1.794 2.502,3.258l-2.448,1.44c-0.384,-1.152 -0.966,-1.98 -1.746,-2.484c-0.78,-0.504 -1.758,-0.756 -2.934,-0.756c-1.176,0 -2.172,0.264 -2.988,0.792c-0.816,0.528 -1.224,1.14 -1.224,1.836c0,0.792 0.354,1.404 1.062,1.836c0.708,0.432 1.974,0.804 3.798,1.116c2.496,0.408 4.26,1.02 5.292,1.836c1.032,0.816 1.548,1.968 1.548,3.456c0,1.032 -0.306,1.95 -0.918,2.754c-0.612,0.804 -1.488,1.434 -2.628,1.89c-1.14,0.456 -2.466,0.684 -3.978,0.684Z" style="fill:#a0a0a0;fill-rule:nonzero;"/><path d="M868.38,138.544c-0.648,0 -1.17,-0.198 -1.566,-0.594c-0.396,-0.396 -0.594,-0.918 -0.594,-1.566c0,-0.648 0.198,-1.17 0.594,-1.566c0.396,-0.396 0.918,-0.594 1.566,-0.594c0.648,0 1.17,0.198 1.566,0.594c0.396,0.396 0.594,0.918 0.594,1.566c0,0.648 -0.198,1.17 -0.594,1.566c-0.396,0.396 -0.918,0.594 -1.566,0.594Zm1.44,21.456l-2.88,0l0,-18l2.88,0l0,18Z" style="fill:#a0a0a0;fill-rule:nonzero;"/><path d="M902.076,157.912c0.48,0 0.96,-0.06 1.44,-0.18l-0.18,2.268c-0.672,0.24 -1.392,0.36 -2.16,0.36c-0.936,0 -1.674,-0.204 -2.214,-0.612c-0.54,-0.408 -0.882,-1.092 -1.026,-2.052c-0.552,0.84 -1.362,1.494 -2.43,1.962c-1.068,0.468 -2.19,0.702 -3.366,0.702c-1.776,0 -3.24,-0.414 -4.392,-1.242c-1.152,-0.828 -1.728,-2.022 -1.728,-3.582c0,-1.368 0.6,-2.55 1.8,-3.546c1.2,-0.996 2.94,-1.686 5.22,-2.07l4.788,-0.792l0,-1.008c0,-1.2 -0.372,-2.16 -1.116,-2.88c-0.744,-0.72 -1.776,-1.08 -3.096,-1.08c-1.2,0 -2.238,0.288 -3.114,0.864c-0.876,0.576 -1.554,1.428 -2.034,2.556l-2.124,-1.548c0.48,-1.344 1.374,-2.412 2.682,-3.204c1.308,-0.792 2.838,-1.188 4.59,-1.188c2.136,0 3.852,0.516 5.148,1.548c1.296,1.032 1.944,2.556 1.944,4.572l0,8.856c0,0.432 0.108,0.756 0.324,0.972c0.216,0.216 0.564,0.324 1.044,0.324Zm-9.792,-0.072c1.512,0 2.814,-0.36 3.906,-1.08c1.092,-0.72 1.638,-1.656 1.638,-2.808l0,-2.484l-4.032,0.756c-1.608,0.288 -2.808,0.702 -3.6,1.242c-0.792,0.54 -1.188,1.23 -1.188,2.07c0,0.744 0.288,1.314 0.864,1.71c0.576,0.396 1.38,0.594 2.412,0.594Z" style="fill:#a0a0a0;fill-rule:nonzero;"/><path d="M924.612,160.36c-1.728,0 -3.288,-0.342 -4.68,-1.026c-1.392,-0.684 -2.412,-1.698 -3.06,-3.042l2.34,-1.62c0.408,1.056 1.116,1.848 2.124,2.376c1.008,0.528 2.196,0.792 3.564,0.792c1.416,0 2.496,-0.252 3.24,-0.756c0.744,-0.504 1.116,-1.14 1.116,-1.908c0,-0.696 -0.348,-1.254 -1.044,-1.674c-0.696,-0.42 -1.92,-0.786 -3.672,-1.098c-1.728,-0.312 -3.096,-0.69 -4.104,-1.134c-1.008,-0.444 -1.74,-1.008 -2.196,-1.692c-0.456,-0.684 -0.684,-1.53 -0.684,-2.538c0,-0.984 0.288,-1.884 0.864,-2.7c0.576,-0.816 1.404,-1.47 2.484,-1.962c1.08,-0.492 2.328,-0.738 3.744,-0.738c1.92,0 3.462,0.354 4.626,1.062c1.164,0.708 1.998,1.794 2.502,3.258l-2.448,1.44c-0.384,-1.152 -0.966,-1.98 -1.746,-2.484c-0.78,-0.504 -1.758,-0.756 -2.934,-0.756c-1.176,0 -2.172,0.264 -2.988,0.792c-0.816,0.528 -1.224,1.14 -1.224,1.836c0,0.792 0.354,1.404 1.062,1.836c0.708,0.432 1.974,0.804 3.798,1.116c2.496,0.408 4.26,1.02 5.292,1.836c1.032,0.816 1.548,1.968 1.548,3.456c0,1.032 -0.306,1.95 -0.918,2.754c-0.612,0.804 -1.488,1.434 -2.628,1.89c-1.14,0.456 -2.466,0.684 -3.978,0.684Z" style="fill:#a0a0a0;fill-rule:nonzero;"/><path d="M959.28,158.74c-1.2,1.08 -2.748,1.62 -4.644,1.62c-1.464,0 -2.658,-0.396 -3.582,-1.188c-0.924,-0.792 -1.398,-2.004 -1.422,-3.636l0,-11.052l-3.6,0l0,-2.484l3.6,0l0,-4.32l2.88,-0.792l0,5.112l6.66,0l0,2.484l-6.66,0l0,10.548c0,0.864 0.246,1.518 0.738,1.962c0.492,0.444 1.146,0.666 1.962,0.666c1.152,0 2.172,-0.444 3.06,-1.332l1.008,2.412Z" style="fill:#a0a0a0;fill-rule:nonzero;"/></g></svg>