<?xml version="1.0" encoding="UTF-8" standalone="no"?>
<!DOCTYPE svg PUBLIC "-//W3C//DTD SVG 1.1//EN" "http://www.w3.org/Graphics/SVG/1.1/DTD/svg11.dtd">
<svg width="100%" height="100%" viewBox="0 0 960 160" version="1.1" xmlns="http://www.w3.org/2000/svg" xmlns:xlink="http://www.w3.org/1999/xlink" xml:space="preserve" xmlns:serif="http://www.serif.com/" style="fill-rule:evenodd;clip-rule:evenodd;stroke-linejoin:round;stroke-miterlimit:2;">
    <rect id="Full-Colors-on-Dark" serif:id="Full Colors on Dark" x="0" y="0" width="960" height="160" style="fill:none;"/>
    <clipPath id="_clip1">
        <rect id="Full-Colors-on-Dark1" serif:id="Full Colors on Dark" x="0" y="0" width="960" height="160"/>
    </clipPath>
    <g clip-path="url(#_clip1)">
        <g id="Combo">
            <rect id="Container" x="0" y="0" width="960" height="160" style="fill:none;"/>
            <g id="Container1" serif:id="Container">
                <path d="M10.476,128.195C12.036,128.195 13.374,128.477 14.49,129.041C15.606,129.605 16.452,130.355 17.028,131.291C17.604,132.227 17.892,133.259 17.892,134.387C17.892,135.491 17.688,136.487 17.28,137.375C16.872,138.263 16.326,138.965 15.642,139.481C14.958,139.997 14.22,140.255 13.428,140.255L13.428,140.327C14.94,140.327 16.152,140.873 17.064,141.965C17.976,143.057 18.432,144.383 18.432,145.943C18.432,147.215 18.09,148.367 17.406,149.399C16.722,150.431 15.744,151.235 14.472,151.811C13.2,152.387 11.736,152.675 10.08,152.675C6.12,152.675 3.384,150.779 1.872,146.987L4.536,145.583C5.016,147.047 5.682,148.145 6.534,148.877C7.386,149.609 8.64,149.975 10.296,149.975C11.904,149.975 13.164,149.573 14.076,148.769C14.988,147.965 15.444,146.927 15.444,145.655C15.444,144.191 15.006,143.165 14.13,142.577C13.254,141.989 11.868,141.695 9.972,141.695L9.036,141.695L9.036,138.995L9.972,138.995C13.26,138.995 14.904,137.651 14.904,134.963C14.904,133.619 14.526,132.605 13.77,131.921C13.014,131.237 11.928,130.895 10.512,130.895C9.12,130.895 8.01,131.213 7.182,131.849C6.354,132.485 5.784,133.379 5.472,134.531L2.772,133.271C3.348,131.711 4.326,130.475 5.706,129.563C7.086,128.651 8.676,128.195 10.476,128.195Z" style="fill:rgb(160,160,160);fill-rule:nonzero;"/>
                <path d="M43.344,128.555C47.088,128.555 50.016,129.587 52.128,131.651C54.24,133.715 55.296,136.643 55.296,140.435C55.296,144.227 54.24,147.155 52.128,149.219C50.016,151.283 47.088,152.315 43.344,152.315L35.676,152.315L35.676,128.555L43.344,128.555ZM43.632,149.615C46.344,149.615 48.462,148.805 49.986,147.185C51.51,145.565 52.272,143.315 52.272,140.435C52.272,137.555 51.51,135.305 49.986,133.685C48.462,132.065 46.344,131.255 43.632,131.255L38.556,131.255L38.556,149.615L43.632,149.615Z" style="fill:rgb(160,160,160);fill-rule:nonzero;"/>
                <path d="M140.342,151.055C139.142,152.135 137.594,152.675 135.698,152.675C134.234,152.675 133.04,152.279 132.116,151.487C131.192,150.695 130.718,149.483 130.694,147.851L130.694,136.799L127.094,136.799L127.094,134.315L130.694,134.315L130.694,129.995L133.574,129.203L133.574,134.315L140.234,134.315L140.234,136.799L133.574,136.799L133.574,147.347C133.574,148.211 133.82,148.865 134.312,149.309C134.804,149.753 135.458,149.975 136.274,149.975C137.426,149.975 138.446,149.531 139.334,148.643L140.342,151.055Z" style="fill:rgb(160,160,160);fill-rule:nonzero;"/>
                <path d="M170.654,142.379C170.654,143.051 170.606,143.723 170.51,144.395L156.938,144.395C157.106,146.219 157.712,147.635 158.756,148.643C159.8,149.651 161.15,150.155 162.806,150.155C164.126,150.155 165.224,149.927 166.1,149.471C166.976,149.015 167.57,148.355 167.882,147.491L170.294,148.751C169.574,150.023 168.614,150.995 167.414,151.667C166.214,152.339 164.678,152.675 162.806,152.675C160.094,152.675 157.964,151.847 156.416,150.191C154.868,148.535 154.094,146.243 154.094,143.315C154.094,140.387 154.832,138.095 156.308,136.439C157.784,134.783 159.878,133.955 162.59,133.955C164.27,133.955 165.722,134.327 166.946,135.071C168.17,135.815 169.094,136.823 169.718,138.095C170.342,139.367 170.654,140.795 170.654,142.379ZM162.59,136.475C161.006,136.475 159.728,136.943 158.756,137.879C157.784,138.815 157.19,140.135 156.974,141.839L167.882,141.839C167.69,140.159 167.138,138.845 166.226,137.897C165.314,136.949 164.102,136.475 162.59,136.475Z" style="fill:rgb(160,160,160);fill-rule:nonzero;"/>
                <path d="M194.522,133.955C196.322,133.955 197.84,134.369 199.076,135.197C200.312,136.025 201.278,137.207 201.974,138.743L199.238,140.039C198.47,137.663 196.874,136.475 194.45,136.475C192.65,136.475 191.24,137.081 190.22,138.293C189.2,139.505 188.69,141.179 188.69,143.315C188.69,145.451 189.2,147.125 190.22,148.337C191.24,149.549 192.65,150.155 194.45,150.155C195.842,150.155 196.964,149.837 197.816,149.201C198.668,148.565 199.226,147.647 199.49,146.447L202.154,147.383C201.53,149.063 200.57,150.365 199.274,151.289C197.978,152.213 196.394,152.675 194.522,152.675C191.81,152.675 189.68,151.847 188.132,150.191C186.584,148.535 185.81,146.243 185.81,143.315C185.81,140.387 186.584,138.095 188.132,136.439C189.68,134.783 191.81,133.955 194.522,133.955Z" style="fill:rgb(160,160,160);fill-rule:nonzero;"/>
                <path d="M226.778,133.955C228.818,133.955 230.498,134.543 231.818,135.719C233.138,136.895 233.798,138.587 233.798,140.795L233.798,152.315L230.918,152.315L230.918,141.803C230.918,139.931 230.516,138.575 229.712,137.735C228.908,136.895 227.834,136.475 226.49,136.475C225.554,136.475 224.66,136.691 223.808,137.123C222.956,137.555 222.26,138.245 221.72,139.193C221.18,140.141 220.91,141.335 220.91,142.775L220.91,152.315L218.03,152.315L218.03,126.035L220.91,126.035L220.91,137.015C221.51,135.983 222.32,135.215 223.34,134.711C224.36,134.207 225.506,133.955 226.778,133.955Z" style="fill:rgb(160,160,160);fill-rule:nonzero;"/>
                <path d="M259.862,133.955C261.902,133.955 263.582,134.543 264.902,135.719C266.222,136.895 266.882,138.587 266.882,140.795L266.882,152.315L264.002,152.315L264.002,141.803C264.002,139.931 263.6,138.575 262.796,137.735C261.992,136.895 260.918,136.475 259.574,136.475C258.614,136.475 257.714,136.685 256.874,137.105C256.034,137.525 255.344,138.209 254.804,139.157C254.264,140.105 253.994,141.299 253.994,142.739L253.994,152.315L251.114,152.315L251.114,134.315L253.634,134.315L253.814,137.123C254.414,136.043 255.242,135.245 256.298,134.729C257.354,134.213 258.542,133.955 259.862,133.955Z" style="fill:rgb(160,160,160);fill-rule:nonzero;"/>
                <path d="M285.638,130.859C284.99,130.859 284.468,130.661 284.072,130.265C283.676,129.869 283.478,129.347 283.478,128.699C283.478,128.051 283.676,127.529 284.072,127.133C284.468,126.737 284.99,126.539 285.638,126.539C286.286,126.539 286.808,126.737 287.204,127.133C287.6,127.529 287.798,128.051 287.798,128.699C287.798,129.347 287.6,129.869 287.204,130.265C286.808,130.661 286.286,130.859 285.638,130.859ZM287.078,152.315L284.198,152.315L284.198,134.315L287.078,134.315L287.078,152.315Z" style="fill:rgb(160,160,160);fill-rule:nonzero;"/>
                <path d="M312.17,133.955C313.97,133.955 315.488,134.369 316.724,135.197C317.96,136.025 318.926,137.207 319.622,138.743L316.886,140.039C316.118,137.663 314.522,136.475 312.098,136.475C310.298,136.475 308.888,137.081 307.868,138.293C306.848,139.505 306.338,141.179 306.338,143.315C306.338,145.451 306.848,147.125 307.868,148.337C308.888,149.549 310.298,150.155 312.098,150.155C313.49,150.155 314.612,149.837 315.464,149.201C316.316,148.565 316.874,147.647 317.138,146.447L319.802,147.383C319.178,149.063 318.218,150.365 316.922,151.289C315.626,152.213 314.042,152.675 312.17,152.675C309.458,152.675 307.328,151.847 305.78,150.191C304.232,148.535 303.458,146.243 303.458,143.315C303.458,140.387 304.232,138.095 305.78,136.439C307.328,134.783 309.458,133.955 312.17,133.955Z" style="fill:rgb(160,160,160);fill-rule:nonzero;"/>
                <path d="M350.438,150.227C350.918,150.227 351.398,150.167 351.878,150.047L351.698,152.315C351.026,152.555 350.306,152.675 349.538,152.675C348.602,152.675 347.864,152.471 347.324,152.063C346.784,151.655 346.442,150.971 346.298,150.011C345.746,150.851 344.936,151.505 343.868,151.973C342.8,152.441 341.678,152.675 340.502,152.675C338.726,152.675 337.262,152.261 336.11,151.433C334.958,150.605 334.382,149.411 334.382,147.851C334.382,146.483 334.982,145.301 336.182,144.305C337.382,143.309 339.122,142.619 341.402,142.235L346.19,141.443L346.19,140.435C346.19,139.235 345.818,138.275 345.074,137.555C344.33,136.835 343.298,136.475 341.978,136.475C340.778,136.475 339.74,136.763 338.864,137.339C337.988,137.915 337.31,138.767 336.83,139.895L334.706,138.347C335.186,137.003 336.08,135.935 337.388,135.143C338.696,134.351 340.226,133.955 341.978,133.955C344.114,133.955 345.83,134.471 347.126,135.503C348.422,136.535 349.07,138.059 349.07,140.075L349.07,148.931C349.07,149.363 349.178,149.687 349.394,149.903C349.61,150.119 349.958,150.227 350.438,150.227ZM340.646,150.155C342.158,150.155 343.46,149.795 344.552,149.075C345.644,148.355 346.19,147.419 346.19,146.267L346.19,143.783L342.158,144.539C340.55,144.827 339.35,145.241 338.558,145.781C337.766,146.321 337.37,147.011 337.37,147.851C337.37,148.595 337.658,149.165 338.234,149.561C338.81,149.957 339.614,150.155 340.646,150.155Z" style="fill:rgb(160,160,160);fill-rule:nonzero;"/>
                <path d="M369.59,147.491C369.59,148.403 369.728,149.033 370.004,149.381C370.28,149.729 370.79,149.903 371.534,149.903C372.038,149.903 372.476,149.867 372.848,149.795C373.22,149.723 373.658,149.591 374.162,149.399L373.694,152.171C372.902,152.507 372.014,152.675 371.03,152.675C369.566,152.675 368.48,152.279 367.772,151.487C367.064,150.695 366.71,149.483 366.71,147.851L366.71,126.035L369.59,126.035L369.59,147.491Z" style="fill:rgb(160,160,160);fill-rule:nonzero;"/>
                <path d="M462.677,126.035L462.677,152.315L460.157,152.315L459.977,149.183C459.449,150.239 458.639,151.085 457.547,151.721C456.455,152.357 455.213,152.675 453.821,152.675C451.301,152.675 449.303,151.841 447.827,150.173C446.351,148.505 445.613,146.219 445.613,143.315C445.613,140.411 446.351,138.125 447.827,136.457C449.303,134.789 451.301,133.955 453.821,133.955C455.141,133.955 456.323,134.243 457.367,134.819C458.411,135.395 459.221,136.163 459.797,137.123L459.797,126.035L462.677,126.035ZM454.145,150.155C455.873,150.155 457.247,149.555 458.267,148.355C459.287,147.155 459.797,145.547 459.797,143.531L459.797,143.099C459.797,141.083 459.287,139.475 458.267,138.275C457.247,137.075 455.873,136.475 454.145,136.475C452.393,136.475 451.013,137.093 450.005,138.329C448.997,139.565 448.493,141.227 448.493,143.315C448.493,145.403 448.997,147.065 450.005,148.301C451.013,149.537 452.393,150.155 454.145,150.155Z" style="fill:rgb(160,160,160);fill-rule:nonzero;"/>
                <path d="M481.613,130.859C480.965,130.859 480.443,130.661 480.047,130.265C479.651,129.869 479.453,129.347 479.453,128.699C479.453,128.051 479.651,127.529 480.047,127.133C480.443,126.737 480.965,126.539 481.613,126.539C482.261,126.539 482.783,126.737 483.179,127.133C483.575,127.529 483.773,128.051 483.773,128.699C483.773,129.347 483.575,129.869 483.179,130.265C482.783,130.661 482.261,130.859 481.613,130.859ZM483.053,152.315L480.173,152.315L480.173,134.315L483.053,134.315L483.053,152.315Z" style="fill:rgb(160,160,160);fill-rule:nonzero;"/>
                <path d="M509.045,133.955C509.909,133.955 510.569,134.075 511.025,134.315L510.449,137.123C509.873,136.811 509.117,136.655 508.181,136.655C507.413,136.655 506.663,136.877 505.931,137.321C505.199,137.765 504.599,138.437 504.131,139.337C503.663,140.237 503.429,141.323 503.429,142.595L503.429,152.315L500.549,152.315L500.549,134.315L502.889,134.315L503.285,137.267C504.293,135.059 506.213,133.955 509.045,133.955Z" style="fill:rgb(160,160,160);fill-rule:nonzero;"/>
                <path d="M540.905,142.379C540.905,143.051 540.857,143.723 540.761,144.395L527.189,144.395C527.357,146.219 527.963,147.635 529.007,148.643C530.051,149.651 531.401,150.155 533.057,150.155C534.377,150.155 535.475,149.927 536.351,149.471C537.227,149.015 537.821,148.355 538.133,147.491L540.545,148.751C539.825,150.023 538.865,150.995 537.665,151.667C536.465,152.339 534.929,152.675 533.057,152.675C530.345,152.675 528.215,151.847 526.667,150.191C525.119,148.535 524.345,146.243 524.345,143.315C524.345,140.387 525.083,138.095 526.559,136.439C528.035,134.783 530.129,133.955 532.841,133.955C534.521,133.955 535.973,134.327 537.197,135.071C538.421,135.815 539.345,136.823 539.969,138.095C540.593,139.367 540.905,140.795 540.905,142.379ZM532.841,136.475C531.257,136.475 529.979,136.943 529.007,137.879C528.035,138.815 527.441,140.135 527.225,141.839L538.133,141.839C537.941,140.159 537.389,138.845 536.477,137.897C535.565,136.949 534.353,136.475 532.841,136.475Z" style="fill:rgb(160,160,160);fill-rule:nonzero;"/>
                <path d="M564.773,133.955C566.573,133.955 568.091,134.369 569.327,135.197C570.563,136.025 571.529,137.207 572.225,138.743L569.489,140.039C568.721,137.663 567.125,136.475 564.701,136.475C562.901,136.475 561.491,137.081 560.471,138.293C559.451,139.505 558.941,141.179 558.941,143.315C558.941,145.451 559.451,147.125 560.471,148.337C561.491,149.549 562.901,150.155 564.701,150.155C566.093,150.155 567.215,149.837 568.067,149.201C568.919,148.565 569.477,147.647 569.741,146.447L572.405,147.383C571.781,149.063 570.821,150.365 569.525,151.289C568.229,152.213 566.645,152.675 564.773,152.675C562.061,152.675 559.931,151.847 558.383,150.191C556.835,148.535 556.061,146.243 556.061,143.315C556.061,140.387 556.835,138.095 558.383,136.439C559.931,134.783 562.061,133.955 564.773,133.955Z" style="fill:rgb(160,160,160);fill-rule:nonzero;"/>
                <path d="M599.297,151.055C598.097,152.135 596.549,152.675 594.653,152.675C593.189,152.675 591.995,152.279 591.071,151.487C590.147,150.695 589.673,149.483 589.649,147.851L589.649,136.799L586.049,136.799L586.049,134.315L589.649,134.315L589.649,129.995L592.529,129.203L592.529,134.315L599.189,134.315L599.189,136.799L592.529,136.799L592.529,147.347C592.529,148.211 592.775,148.865 593.267,149.309C593.759,149.753 594.413,149.975 595.229,149.975C596.381,149.975 597.401,149.531 598.289,148.643L599.297,151.055Z" style="fill:rgb(160,160,160);fill-rule:nonzero;"/>
                <path d="M621.761,133.955C624.473,133.955 626.603,134.783 628.151,136.439C629.699,138.095 630.473,140.387 630.473,143.315C630.473,146.243 629.699,148.535 628.151,150.191C626.603,151.847 624.473,152.675 621.761,152.675C619.049,152.675 616.919,151.847 615.371,150.191C613.823,148.535 613.049,146.243 613.049,143.315C613.049,140.387 613.823,138.095 615.371,136.439C616.919,134.783 619.049,133.955 621.761,133.955ZM621.761,136.439C619.937,136.439 618.509,137.051 617.477,138.275C616.445,139.499 615.929,141.179 615.929,143.315C615.929,145.451 616.445,147.131 617.477,148.355C618.509,149.579 619.937,150.191 621.761,150.191C623.585,150.191 625.013,149.579 626.045,148.355C627.077,147.131 627.593,145.451 627.593,143.315C627.593,141.179 627.077,139.499 626.045,138.275C625.013,137.051 623.585,136.439 621.761,136.439Z" style="fill:rgb(160,160,160);fill-rule:nonzero;"/>
                <path d="M655.349,133.955C656.213,133.955 656.873,134.075 657.329,134.315L656.753,137.123C656.177,136.811 655.421,136.655 654.485,136.655C653.717,136.655 652.967,136.877 652.235,137.321C651.503,137.765 650.903,138.437 650.435,139.337C649.967,140.237 649.733,141.323 649.733,142.595L649.733,152.315L646.853,152.315L646.853,134.315L649.193,134.315L649.589,137.267C650.597,135.059 652.517,133.955 655.349,133.955Z" style="fill:rgb(160,160,160);fill-rule:nonzero;"/>
                <path d="M731.157,154.835L728.457,154.835L739.473,126.035L742.173,126.035L731.157,154.835Z" style="fill:rgb(160,160,160);fill-rule:nonzero;"/>
                <path d="M831.408,150.227C831.888,150.227 832.368,150.167 832.848,150.047L832.668,152.315C831.996,152.555 831.276,152.675 830.508,152.675C829.572,152.675 828.834,152.471 828.294,152.063C827.754,151.655 827.412,150.971 827.268,150.011C826.716,150.851 825.906,151.505 824.838,151.973C823.77,152.441 822.648,152.675 821.472,152.675C819.696,152.675 818.232,152.261 817.08,151.433C815.928,150.605 815.352,149.411 815.352,147.851C815.352,146.483 815.952,145.301 817.152,144.305C818.352,143.309 820.092,142.619 822.372,142.235L827.16,141.443L827.16,140.435C827.16,139.235 826.788,138.275 826.044,137.555C825.3,136.835 824.268,136.475 822.948,136.475C821.748,136.475 820.71,136.763 819.834,137.339C818.958,137.915 818.28,138.767 817.8,139.895L815.676,138.347C816.156,137.003 817.05,135.935 818.358,135.143C819.666,134.351 821.196,133.955 822.948,133.955C825.084,133.955 826.8,134.471 828.096,135.503C829.392,136.535 830.04,138.059 830.04,140.075L830.04,148.931C830.04,149.363 830.148,149.687 830.364,149.903C830.58,150.119 830.928,150.227 831.408,150.227ZM821.616,150.155C823.128,150.155 824.43,149.795 825.522,149.075C826.614,148.355 827.16,147.419 827.16,146.267L827.16,143.783L823.128,144.539C821.52,144.827 820.32,145.241 819.528,145.781C818.736,146.321 818.34,147.011 818.34,147.851C818.34,148.595 818.628,149.165 819.204,149.561C819.78,149.957 820.584,150.155 821.616,150.155Z" style="fill:rgb(160,160,160);fill-rule:nonzero;"/>
                <path d="M856.32,133.955C857.184,133.955 857.844,134.075 858.3,134.315L857.724,137.123C857.148,136.811 856.392,136.655 855.456,136.655C854.688,136.655 853.938,136.877 853.206,137.321C852.474,137.765 851.874,138.437 851.406,139.337C850.938,140.237 850.704,141.323 850.704,142.595L850.704,152.315L847.824,152.315L847.824,134.315L850.164,134.315L850.56,137.267C851.568,135.059 853.488,133.955 856.32,133.955Z" style="fill:rgb(160,160,160);fill-rule:nonzero;"/>
                <path d="M883.248,151.055C882.048,152.135 880.5,152.675 878.604,152.675C877.14,152.675 875.946,152.279 875.022,151.487C874.098,150.695 873.624,149.483 873.6,147.851L873.6,136.799L870,136.799L870,134.315L873.6,134.315L873.6,129.995L876.48,129.203L876.48,134.315L883.14,134.315L883.14,136.799L876.48,136.799L876.48,147.347C876.48,148.211 876.726,148.865 877.218,149.309C877.71,149.753 878.364,149.975 879.18,149.975C880.332,149.975 881.352,149.531 882.24,148.643L883.248,151.055Z" style="fill:rgb(160,160,160);fill-rule:nonzero;"/>
                <path d="M899.556,130.859C898.908,130.859 898.386,130.661 897.99,130.265C897.594,129.869 897.396,129.347 897.396,128.699C897.396,128.051 897.594,127.529 897.99,127.133C898.386,126.737 898.908,126.539 899.556,126.539C900.204,126.539 900.726,126.737 901.122,127.133C901.518,127.529 901.716,128.051 901.716,128.699C901.716,129.347 901.518,129.869 901.122,130.265C900.726,130.661 900.204,130.859 899.556,130.859ZM900.996,152.315L898.116,152.315L898.116,134.315L900.996,134.315L900.996,152.315Z" style="fill:rgb(160,160,160);fill-rule:nonzero;"/>
                <path d="M924.612,152.675C922.884,152.675 921.324,152.333 919.932,151.649C918.54,150.965 917.52,149.951 916.872,148.607L919.212,146.987C919.62,148.043 920.328,148.835 921.336,149.363C922.344,149.891 923.532,150.155 924.9,150.155C926.316,150.155 927.396,149.903 928.14,149.399C928.884,148.895 929.256,148.259 929.256,147.491C929.256,146.795 928.908,146.237 928.212,145.817C927.516,145.397 926.292,145.031 924.54,144.719C922.812,144.407 921.444,144.029 920.436,143.585C919.428,143.141 918.696,142.577 918.24,141.893C917.784,141.209 917.556,140.363 917.556,139.355C917.556,138.371 917.844,137.471 918.42,136.655C918.996,135.839 919.824,135.185 920.904,134.693C921.984,134.201 923.232,133.955 924.648,133.955C926.568,133.955 928.11,134.309 929.274,135.017C930.438,135.725 931.272,136.811 931.776,138.275L929.328,139.715C928.944,138.563 928.362,137.735 927.582,137.231C926.802,136.727 925.824,136.475 924.648,136.475C923.472,136.475 922.476,136.739 921.66,137.267C920.844,137.795 920.436,138.407 920.436,139.103C920.436,139.895 920.79,140.507 921.498,140.939C922.206,141.371 923.472,141.743 925.296,142.055C927.792,142.463 929.556,143.075 930.588,143.891C931.62,144.707 932.136,145.859 932.136,147.347C932.136,148.379 931.83,149.297 931.218,150.101C930.606,150.905 929.73,151.535 928.59,151.991C927.45,152.447 926.124,152.675 924.612,152.675Z" style="fill:rgb(160,160,160);fill-rule:nonzero;"/>
                <path d="M959.28,151.055C958.08,152.135 956.532,152.675 954.636,152.675C953.172,152.675 951.978,152.279 951.054,151.487C950.13,150.695 949.656,149.483 949.632,147.851L949.632,136.799L946.032,136.799L946.032,134.315L949.632,134.315L949.632,129.995L952.512,129.203L952.512,134.315L959.172,134.315L959.172,136.799L952.512,136.799L952.512,147.347C952.512,148.211 952.758,148.865 953.25,149.309C953.742,149.753 954.396,149.975 955.212,149.975C956.364,149.975 957.384,149.531 958.272,148.643L959.28,151.055Z" style="fill:rgb(160,160,160);fill-rule:nonzero;"/>
                <g transform="matrix(1,0,0,1,-12.7075,0.317317)">
                    <g transform="matrix(140,0,0,140,0,102.2)">
                        <path d="M0.279,-0.247L0.173,-0.141L0.173,-0L0.093,-0L0.093,-0.73L0.173,-0.73L0.173,-0.241L0.432,-0.5L0.532,-0.5L0.337,-0.305L0.544,-0L0.447,-0L0.279,-0.247Z" style="fill:rgb(0,204,255);fill-rule:nonzero;"/>
                    </g>
                    <g transform="matrix(140,0,0,140,101.903,102.2)">
                        <path d="M0.522,-0.276C0.522,-0.257 0.521,-0.239 0.518,-0.22L0.141,-0.22C0.146,-0.169 0.163,-0.13 0.192,-0.102C0.221,-0.074 0.258,-0.06 0.304,-0.06C0.341,-0.06 0.371,-0.066 0.396,-0.079C0.42,-0.092 0.436,-0.11 0.445,-0.134L0.512,-0.099C0.492,-0.064 0.465,-0.037 0.432,-0.018C0.399,0.001 0.356,0.01 0.304,0.01C0.229,0.01 0.17,-0.013 0.127,-0.059C0.084,-0.105 0.062,-0.169 0.062,-0.25C0.062,-0.331 0.083,-0.395 0.124,-0.441C0.165,-0.487 0.223,-0.51 0.298,-0.51C0.345,-0.51 0.385,-0.5 0.419,-0.479C0.453,-0.458 0.479,-0.43 0.496,-0.395C0.513,-0.36 0.522,-0.32 0.522,-0.276ZM0.298,-0.44C0.254,-0.44 0.219,-0.427 0.192,-0.401C0.165,-0.375 0.148,-0.338 0.142,-0.291L0.445,-0.291C0.44,-0.338 0.424,-0.374 0.399,-0.401C0.374,-0.427 0.34,-0.44 0.298,-0.44Z" style="fill:rgb(0,204,255);fill-rule:nonzero;"/>
                    </g>
                    <g transform="matrix(140,0,0,140,206.326,102.2)">
                        <path d="M0.508,-0.5L0.3,-0L0.22,-0L0.012,-0.5L0.103,-0.5L0.261,-0.081L0.424,-0.5L0.508,-0.5Z" style="fill:rgb(0,204,255);fill-rule:nonzero;"/>
                    </g>
                    <g transform="matrix(140,0,0,140,304.169,102.2)">
                        <path d="M0.133,-0.596C0.115,-0.596 0.101,-0.602 0.09,-0.613C0.079,-0.624 0.073,-0.638 0.073,-0.656C0.073,-0.674 0.079,-0.689 0.09,-0.7C0.101,-0.711 0.115,-0.716 0.133,-0.716C0.151,-0.716 0.166,-0.711 0.177,-0.7C0.188,-0.689 0.193,-0.674 0.193,-0.656C0.193,-0.638 0.188,-0.624 0.177,-0.613C0.166,-0.602 0.151,-0.596 0.133,-0.596ZM0.173,-0L0.093,-0L0.093,-0.5L0.173,-0.5L0.173,-0Z" style="fill:rgb(0,204,255);fill-rule:nonzero;"/>
                    </g>
                    <g transform="matrix(140,0,0,140,366.452,102.2)">
                        <path d="M0.336,-0.51C0.393,-0.51 0.439,-0.494 0.476,-0.461C0.513,-0.428 0.531,-0.381 0.531,-0.32L0.531,-0L0.451,-0L0.451,-0.292C0.451,-0.344 0.44,-0.382 0.418,-0.405C0.395,-0.428 0.365,-0.44 0.328,-0.44C0.301,-0.44 0.276,-0.434 0.253,-0.423C0.23,-0.411 0.211,-0.392 0.196,-0.366C0.181,-0.339 0.173,-0.306 0.173,-0.266L0.173,-0L0.093,-0L0.093,-0.5L0.163,-0.5L0.168,-0.422C0.185,-0.452 0.208,-0.474 0.237,-0.489C0.266,-0.503 0.299,-0.51 0.336,-0.51Z" style="fill:rgb(0,204,255);fill-rule:nonzero;"/>
                    </g>
                    <g transform="matrix(140,0,0,140,478.155,102.2)">
                        <path d="M0.763,-0.5L0.595,-0L0.567,-0L0.396,-0.463L0.226,-0L0.198,-0L0.031,-0.5L0.061,-0.5L0.213,-0.035L0.382,-0.5L0.411,-0.5L0.581,-0.035L0.732,-0.5L0.763,-0.5Z" style="fill:rgb(192,192,192);fill-rule:nonzero;"/>
                    </g>
                    <g transform="matrix(140,0,0,140,612.818,102.2)">
                        <path d="M0.492,-0.235L0.081,-0.235C0.084,-0.166 0.103,-0.112 0.139,-0.073C0.174,-0.034 0.223,-0.015 0.285,-0.015C0.326,-0.015 0.362,-0.024 0.394,-0.043C0.426,-0.061 0.45,-0.086 0.465,-0.119L0.488,-0.107C0.47,-0.07 0.443,-0.042 0.408,-0.021C0.373,-0 0.332,0.01 0.285,0.01C0.212,0.01 0.156,-0.013 0.115,-0.059C0.074,-0.105 0.053,-0.169 0.053,-0.25C0.053,-0.331 0.073,-0.395 0.113,-0.441C0.153,-0.487 0.208,-0.51 0.279,-0.51C0.346,-0.51 0.399,-0.487 0.437,-0.441C0.474,-0.394 0.493,-0.331 0.493,-0.252L0.492,-0.235ZM0.279,-0.486C0.218,-0.486 0.171,-0.466 0.136,-0.427C0.101,-0.387 0.082,-0.332 0.081,-0.261L0.467,-0.261C0.465,-0.332 0.448,-0.387 0.416,-0.427C0.383,-0.466 0.338,-0.486 0.279,-0.486Z" style="fill:rgb(192,192,192);fill-rule:nonzero;"/>
                    </g>
                    <g transform="matrix(140,0,0,140,713.881,102.2)">
                        <path d="M0.311,-0.51C0.382,-0.51 0.438,-0.487 0.479,-0.441C0.52,-0.395 0.54,-0.331 0.54,-0.25C0.54,-0.169 0.52,-0.105 0.479,-0.059C0.438,-0.013 0.382,0.01 0.311,0.01C0.262,0.01 0.22,-0.003 0.186,-0.029C0.151,-0.054 0.127,-0.09 0.114,-0.135L0.113,-0L0.087,-0L0.087,-0.73L0.115,-0.73L0.115,-0.368C0.128,-0.413 0.152,-0.448 0.187,-0.472C0.221,-0.498 0.262,-0.51 0.311,-0.51ZM0.307,-0.015C0.372,-0.015 0.422,-0.036 0.458,-0.077C0.494,-0.118 0.512,-0.176 0.512,-0.25C0.512,-0.324 0.494,-0.382 0.458,-0.424C0.422,-0.465 0.372,-0.486 0.307,-0.486C0.248,-0.486 0.202,-0.465 0.167,-0.424C0.132,-0.382 0.115,-0.325 0.115,-0.254L0.115,-0.246C0.115,-0.175 0.132,-0.118 0.167,-0.077C0.202,-0.036 0.248,-0.015 0.307,-0.015Z" style="fill:rgb(192,192,192);fill-rule:nonzero;"/>
                    </g>
                    <g transform="matrix(140,0,0,140,821.944,102.2)">
                        <path d="M0.492,-0.235L0.081,-0.235C0.084,-0.166 0.103,-0.112 0.139,-0.073C0.174,-0.034 0.223,-0.015 0.285,-0.015C0.326,-0.015 0.362,-0.024 0.394,-0.043C0.426,-0.061 0.45,-0.086 0.465,-0.119L0.488,-0.107C0.47,-0.07 0.443,-0.042 0.408,-0.021C0.373,-0 0.332,0.01 0.285,0.01C0.212,0.01 0.156,-0.013 0.115,-0.059C0.074,-0.105 0.053,-0.169 0.053,-0.25C0.053,-0.331 0.073,-0.395 0.113,-0.441C0.153,-0.487 0.208,-0.51 0.279,-0.51C0.346,-0.51 0.399,-0.487 0.437,-0.441C0.474,-0.394 0.493,-0.331 0.493,-0.252L0.492,-0.235ZM0.279,-0.486C0.218,-0.486 0.171,-0.466 0.136,-0.427C0.101,-0.387 0.082,-0.332 0.081,-0.261L0.467,-0.261C0.465,-0.332 0.448,-0.387 0.416,-0.427C0.383,-0.466 0.338,-0.486 0.279,-0.486Z" style="fill:rgb(192,192,192);fill-rule:nonzero;"/>
                    </g>
                    <g transform="matrix(140,0,0,140,923.007,102.2)">
                        <path d="M0.277,-0.51C0.307,-0.51 0.33,-0.503 0.345,-0.489L0.335,-0.464C0.327,-0.471 0.318,-0.476 0.309,-0.48C0.3,-0.483 0.287,-0.485 0.271,-0.485C0.242,-0.485 0.216,-0.476 0.193,-0.458C0.169,-0.44 0.15,-0.416 0.136,-0.385C0.122,-0.354 0.115,-0.322 0.115,-0.287L0.115,-0L0.087,-0L0.087,-0.5L0.112,-0.5L0.114,-0.381C0.127,-0.42 0.147,-0.451 0.176,-0.474C0.205,-0.498 0.238,-0.51 0.277,-0.51Z" style="fill:rgb(192,192,192);fill-rule:nonzero;"/>
                    </g>
                </g>
            </g>
        </g>
    </g>
</svg>
