<?xml version="1.0" encoding="UTF-8" standalone="no"?>
<!DOCTYPE svg PUBLIC "-//W3C//DTD SVG 1.1//EN" "http://www.w3.org/Graphics/SVG/1.1/DTD/svg11.dtd">
<svg width="100%" height="100%" viewBox="0 0 957 174" version="1.1" xmlns="http://www.w3.org/2000/svg" xmlns:xlink="http://www.w3.org/1999/xlink" xml:space="preserve" style="fill-rule:evenodd;clip-rule:evenodd;stroke-linejoin:round;stroke-miterlimit:1.41421;">
    <g id="Artboard1" transform="matrix(0.996397,0,0,1.15325,0,0.475501)">
        <rect x="0" y="-0.412" width="960" height="150.412" style="fill:none;"/>
        <g transform="matrix(1.00362,0,0,0.867115,-11.0932,-0.137164)">
            <g>
                <path d="M47.46,30.8C57.26,30.8 65.03,34.043 70.77,40.53C76.51,47.017 79.38,55.907 79.38,67.2C79.38,78.493 76.51,87.383 70.77,93.87C65.03,100.357 57.26,103.6 47.46,103.6C42.047,103.6 37.217,102.363 32.97,99.89C28.723,97.417 25.573,94.127 23.52,90.02L22.82,102.2L13.02,102.2L13.02,0L24.22,0L24.22,43.12C26.46,39.387 29.61,36.4 33.67,34.16C37.73,31.92 42.327,30.8 47.46,30.8ZM46.2,93.8C53.013,93.8 58.38,91.397 62.3,86.59C66.22,81.783 68.18,75.32 68.18,67.2C68.18,59.08 66.22,52.617 62.3,47.81C58.38,43.003 53.013,40.6 46.2,40.6C39.48,40.6 34.137,42.933 30.17,47.6C26.203,52.267 24.22,58.52 24.22,66.36L24.22,68.04C24.22,75.88 26.203,82.133 30.17,86.8C34.137,91.467 39.48,93.8 46.2,93.8Z" style="fill:rgb(0,204,255);fill-rule:nonzero;"/>
                <path d="M126.791,83.44C126.791,86.987 127.327,89.437 128.401,90.79C129.474,92.143 131.457,92.82 134.351,92.82C136.311,92.82 138.014,92.68 139.461,92.4C140.907,92.12 142.611,91.607 144.571,90.86L142.751,101.64C139.671,102.947 136.217,103.6 132.391,103.6C126.697,103.6 122.474,102.06 119.721,98.98C116.967,95.9 115.591,91.187 115.591,84.84L115.591,0L126.791,0L126.791,83.44Z" style="fill:rgb(0,204,255);fill-rule:nonzero;"/>
                <path d="M234.541,32.2L234.541,102.2L224.741,102.2L224.041,91.56C219.374,99.587 211.021,103.6 198.981,103.6C191.421,103.6 185.238,101.5 180.431,97.3C175.624,93.1 173.221,86.66 173.221,77.98L173.221,32.2L184.421,32.2L184.421,75.04C184.421,81.853 185.821,86.683 188.621,89.53C191.421,92.377 195.528,93.8 200.941,93.8C207.381,93.8 212.724,91.84 216.971,87.92C221.218,84 223.341,78.12 223.341,70.28L223.341,32.2L234.541,32.2Z" style="fill:rgb(0,204,255);fill-rule:nonzero;"/>
                <path d="M335.572,63.56C335.572,66.173 335.385,68.787 335.012,71.4L282.232,71.4C282.885,78.493 285.242,84 289.302,87.92C293.362,91.84 298.612,93.8 305.052,93.8C310.185,93.8 314.455,92.913 317.862,91.14C321.268,89.367 323.578,86.8 324.792,83.44L334.172,88.34C331.372,93.287 327.638,97.067 322.972,99.68C318.305,102.293 312.332,103.6 305.052,103.6C294.505,103.6 286.222,100.38 280.202,93.94C274.182,87.5 271.172,78.587 271.172,67.2C271.172,55.813 274.042,46.9 279.782,40.46C285.522,34.02 293.665,30.8 304.212,30.8C310.745,30.8 316.392,32.247 321.152,35.14C325.912,38.033 329.505,41.953 331.932,46.9C334.358,51.847 335.572,57.4 335.572,63.56ZM304.212,40.6C298.052,40.6 293.082,42.42 289.302,46.06C285.522,49.7 283.212,54.833 282.372,61.46L324.792,61.46C324.045,54.927 321.898,49.817 318.352,46.13C314.805,42.443 310.092,40.6 304.212,40.6Z" style="fill:rgb(0,204,255);fill-rule:nonzero;"/>
                <path d="M424.282,32.2L395.022,102.2L390.962,102.2L361.562,32.2L366.042,32.2L392.922,97.86L420.082,32.2L424.282,32.2Z" style="fill:rgb(192,192,192);fill-rule:nonzero;"/>
                <path d="M456.153,18.48C454.846,18.48 453.819,18.107 453.073,17.36C452.326,16.613 451.953,15.633 451.953,14.42C451.953,13.207 452.349,12.227 453.143,11.48C453.936,10.733 454.939,10.36 456.153,10.36C457.366,10.36 458.346,10.733 459.093,11.48C459.839,12.227 460.213,13.207 460.213,14.42C460.213,15.633 459.839,16.613 459.093,17.36C458.346,18.107 457.366,18.48 456.153,18.48ZM458.113,102.2L454.193,102.2L454.193,32.2L458.113,32.2L458.113,102.2Z" style="fill:rgb(192,192,192);fill-rule:nonzero;"/>
                <path d="M519.243,103.6C511.963,103.6 505.757,102.153 500.623,99.26C495.49,96.367 492.13,92.213 490.543,86.8L493.903,84.84C495.21,89.88 498.15,93.683 502.723,96.25C507.297,98.817 512.99,100.1 519.803,100.1C526.897,100.1 532.497,98.7 536.603,95.9C540.71,93.1 542.763,89.32 542.763,84.56C542.763,80.547 541.083,77.373 537.723,75.04C534.363,72.707 528.437,70.793 519.943,69.3C510.237,67.62 503.423,65.333 499.503,62.44C495.583,59.547 493.623,55.487 493.623,50.26C493.623,46.62 494.743,43.33 496.983,40.39C499.223,37.45 502.327,35.117 506.293,33.39C510.26,31.663 514.763,30.8 519.803,30.8C527.177,30.8 533.033,32.2 537.373,35C541.713,37.8 544.583,42.187 545.983,48.16L542.623,50.12C540.197,39.48 532.59,34.16 519.803,34.16C515.603,34.16 511.8,34.837 508.393,36.19C504.987,37.543 502.327,39.41 500.413,41.79C498.5,44.17 497.543,46.76 497.543,49.56C497.543,53.947 499.27,57.377 502.723,59.85C506.177,62.323 512.29,64.307 521.063,65.8C530.49,67.387 537.117,69.603 540.943,72.45C544.77,75.297 546.683,79.287 546.683,84.42C546.683,90.3 544.21,94.967 539.263,98.42C534.317,101.873 527.643,103.6 519.243,103.6Z" style="fill:rgb(192,192,192);fill-rule:nonzero;"/>
                <path d="M636.654,32.2L636.654,102.2L633.014,102.2L632.874,85.54C630.914,91.047 627.39,95.433 622.304,98.7C617.217,101.967 611.22,103.6 604.314,103.6C596.66,103.6 590.64,101.453 586.254,97.16C581.867,92.867 579.674,86.707 579.674,78.68L579.674,32.2L583.594,32.2L583.594,77.84C583.594,85.12 585.437,90.65 589.124,94.43C592.81,98.21 598.107,100.1 605.014,100.1C610.894,100.1 615.91,98.77 620.064,96.11C624.217,93.45 627.367,90.09 629.514,86.03C631.66,81.97 632.734,77.933 632.734,73.92L632.734,32.2L636.654,32.2Z" style="fill:rgb(192,192,192);fill-rule:nonzero;"/>
                <path d="M731.244,100.24C733.671,100.24 735.444,99.867 736.564,99.12L736.284,102.34C734.884,103.18 733.018,103.6 730.684,103.6C723.591,103.6 720.044,99.12 720.044,90.16L720.044,90.02C718.084,94.313 714.491,97.65 709.264,100.03C704.038,102.41 698.484,103.6 692.604,103.6C685.698,103.6 680.261,102.107 676.294,99.12C672.328,96.133 670.344,91.98 670.344,86.66C670.344,81.153 672.421,76.767 676.574,73.5C680.728,70.233 687.331,67.76 696.384,66.08L720.044,61.74L720.044,53.9C720.044,47.647 718.224,42.793 714.584,39.34C710.944,35.887 705.718,34.16 698.904,34.16C692.744,34.16 687.681,35.443 683.714,38.01C679.748,40.577 676.784,44.613 674.824,50.12L671.744,47.88C675.944,36.493 684.998,30.8 698.904,30.8C706.931,30.8 713.114,32.737 717.454,36.61C721.794,40.483 723.964,46.153 723.964,53.62L723.964,91.14C723.964,94.127 724.594,96.39 725.854,97.93C727.114,99.47 728.911,100.24 731.244,100.24ZM693.304,100.1C697.224,100.1 701.261,99.377 705.414,97.93C709.568,96.483 713.044,94.29 715.844,91.35C718.644,88.41 720.044,84.84 720.044,80.64L720.044,65.1L698.204,69.16C689.804,70.653 683.738,72.823 680.004,75.67C676.271,78.517 674.404,82.18 674.404,86.66C674.404,90.953 676.061,94.267 679.374,96.6C682.688,98.933 687.331,100.1 693.304,100.1Z" style="fill:rgb(192,192,192);fill-rule:nonzero;"/>
                <path d="M767.735,86.52C767.735,91.28 768.505,94.71 770.045,96.81C771.585,98.91 774.035,99.96 777.395,99.96C779.261,99.96 780.778,99.843 781.945,99.61C783.111,99.377 784.441,98.933 785.935,98.28L785.515,101.92C783.275,103.04 780.428,103.6 776.975,103.6C772.495,103.6 769.181,102.247 767.035,99.54C764.888,96.833 763.815,92.587 763.815,86.8L763.815,0L767.735,0L767.735,86.52Z" style="fill:rgb(192,192,192);fill-rule:nonzero;"/>
                <path d="M815.145,94.64C816.452,94.64 817.479,95.013 818.225,95.76C818.972,96.507 819.345,97.533 819.345,98.84C819.345,100.053 818.972,101.057 818.225,101.85C817.479,102.643 816.452,103.04 815.145,103.04C813.932,103.04 812.929,102.643 812.135,101.85C811.342,101.057 810.945,100.053 810.945,98.84C810.945,97.533 811.342,96.507 812.135,95.76C812.929,95.013 813.932,94.64 815.145,94.64Z" style="fill:rgb(96,96,96);fill-rule:nonzero;"/>
                <path d="M886.076,98.14C884.396,99.727 882.296,101.033 879.776,102.06C877.256,103.087 874.549,103.6 871.656,103.6C866.056,103.6 861.786,102.013 858.846,98.84C855.906,95.667 854.436,90.907 854.436,84.56L854.436,35.56L840.436,35.56L840.436,32.2L854.436,32.2L854.436,14.28L858.356,13.16L858.356,32.2L885.096,32.2L885.096,35.56L858.356,35.56L858.356,84.28C858.356,94.827 862.929,100.1 872.076,100.1C876.929,100.1 881.036,98.373 884.396,94.92L886.076,98.14Z" style="fill:rgb(96,96,96);fill-rule:nonzero;"/>
                <path d="M967.226,32.2L937.966,102.2L933.906,102.2L904.506,32.2L908.986,32.2L935.866,97.86L963.026,32.2L967.226,32.2Z" style="fill:rgb(96,96,96);fill-rule:nonzero;"/>
            </g>
        </g>
        <g transform="matrix(1.00362,0,0,0.867115,1.11424e-16,122.974)">
            <path d="M2.336,6.88L5.376,6.88L5.632,9.024L5.76,9.024C6.421,8.32 7.141,7.723 7.92,7.232C8.699,6.741 9.579,6.496 10.56,6.496C11.712,6.496 12.635,6.741 13.328,7.232C14.021,7.723 14.549,8.416 14.912,9.312C15.659,8.501 16.437,7.829 17.248,7.296C18.059,6.763 18.965,6.496 19.968,6.496C21.632,6.496 22.859,7.035 23.648,8.112C24.437,9.189 24.832,10.731 24.832,12.736L24.832,22.592L21.12,22.592L21.12,13.216C21.12,11.915 20.923,10.997 20.528,10.464C20.133,9.931 19.531,9.664 18.72,9.664C17.739,9.664 16.64,10.315 15.424,11.616L15.424,22.592L11.744,22.592L11.744,13.216C11.744,11.915 11.547,10.997 11.152,10.464C10.757,9.931 10.144,9.664 9.312,9.664C8.331,9.664 7.232,10.315 6.016,11.616L6.016,22.592L2.336,22.592L2.336,6.88Z" style="fill:rgb(160,160,160);fill-rule:nonzero;"/>
            <path d="M34.688,14.752C34.688,13.451 34.891,12.288 35.296,11.264C35.701,10.24 36.251,9.376 36.944,8.672C37.637,7.968 38.432,7.429 39.328,7.056C40.224,6.683 41.163,6.496 42.144,6.496C43.125,6.496 44.069,6.683 44.976,7.056C45.883,7.429 46.677,7.968 47.36,8.672C48.043,9.376 48.592,10.24 49.008,11.264C49.424,12.288 49.632,13.451 49.632,14.752C49.632,16.053 49.424,17.216 49.008,18.24C48.592,19.264 48.043,20.128 47.36,20.832C46.677,21.536 45.883,22.069 44.976,22.432C44.069,22.795 43.125,22.976 42.144,22.976C41.163,22.976 40.224,22.795 39.328,22.432C38.432,22.069 37.637,21.536 36.944,20.832C36.251,20.128 35.701,19.264 35.296,18.24C34.891,17.216 34.688,16.053 34.688,14.752ZM38.464,14.752C38.464,16.331 38.789,17.595 39.44,18.544C40.091,19.493 40.992,19.968 42.144,19.968C43.296,19.968 44.203,19.493 44.864,18.544C45.525,17.595 45.856,16.331 45.856,14.752C45.856,13.152 45.525,11.877 44.864,10.928C44.203,9.979 43.296,9.504 42.144,9.504C40.992,9.504 40.091,9.979 39.44,10.928C38.789,11.877 38.464,13.152 38.464,14.752Z" style="fill:rgb(160,160,160);fill-rule:nonzero;"/>
            <path d="M60.224,9.792L57.984,9.792L57.984,7.04L60.416,6.88L60.864,2.592L63.936,2.592L63.936,6.88L67.936,6.88L67.936,9.792L63.936,9.792L63.936,17.28C63.936,19.115 64.672,20.032 66.144,20.032C66.421,20.032 66.704,20 66.992,19.936C67.28,19.872 67.541,19.787 67.776,19.68L68.416,22.4C67.989,22.549 67.504,22.683 66.96,22.8C66.416,22.917 65.835,22.976 65.216,22.976C64.299,22.976 63.525,22.837 62.896,22.56C62.267,22.283 61.755,21.893 61.36,21.392C60.965,20.891 60.677,20.293 60.496,19.6C60.315,18.907 60.224,18.133 60.224,17.28L60.224,9.792Z" style="fill:rgb(160,160,160);fill-rule:nonzero;"/>
            <path d="M79.488,4.128C78.827,4.128 78.283,3.936 77.856,3.552C77.429,3.168 77.216,2.667 77.216,2.048C77.216,1.429 77.429,0.923 77.856,0.528C78.283,0.133 78.827,-0.064 79.488,-0.064C80.149,-0.064 80.693,0.133 81.12,0.528C81.547,0.923 81.76,1.429 81.76,2.048C81.76,2.667 81.547,3.168 81.12,3.552C80.693,3.936 80.149,4.128 79.488,4.128ZM77.632,6.88L81.312,6.88L81.312,22.592L77.632,22.592L77.632,6.88Z" style="fill:rgb(160,160,160);fill-rule:nonzero;"/>
            <path d="M91.392,14.752C91.392,13.451 91.595,12.288 92,11.264C92.405,10.24 92.955,9.376 93.648,8.672C94.341,7.968 95.136,7.429 96.032,7.056C96.928,6.683 97.867,6.496 98.848,6.496C99.829,6.496 100.773,6.683 101.68,7.056C102.587,7.429 103.381,7.968 104.064,8.672C104.747,9.376 105.296,10.24 105.712,11.264C106.128,12.288 106.336,13.451 106.336,14.752C106.336,16.053 106.128,17.216 105.712,18.24C105.296,19.264 104.747,20.128 104.064,20.832C103.381,21.536 102.587,22.069 101.68,22.432C100.773,22.795 99.829,22.976 98.848,22.976C97.867,22.976 96.928,22.795 96.032,22.432C95.136,22.069 94.341,21.536 93.648,20.832C92.955,20.128 92.405,19.264 92,18.24C91.595,17.216 91.392,16.053 91.392,14.752ZM95.168,14.752C95.168,16.331 95.493,17.595 96.144,18.544C96.795,19.493 97.696,19.968 98.848,19.968C100,19.968 100.907,19.493 101.568,18.544C102.229,17.595 102.56,16.331 102.56,14.752C102.56,13.152 102.229,11.877 101.568,10.928C100.907,9.979 100,9.504 98.848,9.504C97.696,9.504 96.795,9.979 96.144,10.928C95.493,11.877 95.168,13.152 95.168,14.752Z" style="fill:rgb(160,160,160);fill-rule:nonzero;"/>
            <path d="M116.384,6.88L119.424,6.88L119.68,8.992L119.808,8.992C120.512,8.309 121.275,7.723 122.096,7.232C122.917,6.741 123.872,6.496 124.96,6.496C126.645,6.496 127.872,7.035 128.64,8.112C129.408,9.189 129.792,10.731 129.792,12.736L129.792,22.592L126.112,22.592L126.112,13.216C126.112,11.915 125.92,10.997 125.536,10.464C125.152,9.931 124.523,9.664 123.648,9.664C122.965,9.664 122.363,9.829 121.84,10.16C121.317,10.491 120.725,10.976 120.064,11.616L120.064,22.592L116.384,22.592L116.384,6.88Z" style="fill:rgb(160,160,160);fill-rule:nonzero;"/>
            <path d="M159.773,24.896C159.773,25.6 160.13,26.149 160.845,26.544C161.559,26.939 162.546,27.136 163.805,27.136C165.085,27.136 166.114,26.885 166.893,26.384C167.671,25.883 168.061,25.291 168.061,24.608C168.061,23.989 167.821,23.573 167.341,23.36C166.861,23.147 166.173,23.04 165.277,23.04L163.133,23.04C162.279,23.04 161.565,22.965 160.989,22.816C160.178,23.435 159.773,24.128 159.773,24.896ZM156.701,25.44C156.701,24.779 156.893,24.165 157.277,23.6C157.661,23.035 158.215,22.528 158.941,22.08L158.941,21.952C158.535,21.696 158.199,21.355 157.933,20.928C157.666,20.501 157.533,19.968 157.533,19.328C157.533,18.709 157.709,18.149 158.061,17.648C158.413,17.147 158.813,16.736 159.261,16.416L159.261,16.288C158.727,15.883 158.253,15.323 157.837,14.608C157.421,13.893 157.213,13.067 157.213,12.128C157.213,11.232 157.383,10.432 157.725,9.728C158.066,9.024 158.519,8.432 159.085,7.952C159.65,7.472 160.306,7.109 161.053,6.864C161.799,6.619 162.589,6.496 163.421,6.496C163.847,6.496 164.258,6.533 164.653,6.608C165.047,6.683 165.405,6.773 165.725,6.88L171.357,6.88L171.357,9.6L168.477,9.6C168.733,9.899 168.946,10.277 169.117,10.736C169.287,11.195 169.373,11.701 169.373,12.256C169.373,13.131 169.218,13.899 168.909,14.56C168.599,15.221 168.178,15.776 167.645,16.224C167.111,16.672 166.482,17.013 165.757,17.248C165.031,17.483 164.253,17.6 163.421,17.6C163.079,17.6 162.727,17.568 162.365,17.504C162.002,17.44 161.639,17.333 161.277,17.184C161.042,17.397 160.855,17.611 160.717,17.824C160.578,18.037 160.509,18.325 160.509,18.688C160.509,19.136 160.695,19.488 161.069,19.744C161.442,20 162.109,20.128 163.069,20.128L165.853,20.128C167.751,20.128 169.186,20.432 170.157,21.04C171.127,21.648 171.613,22.635 171.613,24C171.613,24.768 171.415,25.493 171.021,26.176C170.626,26.859 170.066,27.445 169.341,27.936C168.615,28.427 167.735,28.816 166.701,29.104C165.666,29.392 164.509,29.536 163.229,29.536C162.29,29.536 161.421,29.451 160.621,29.28C159.821,29.109 159.133,28.853 158.557,28.512C157.981,28.171 157.527,27.744 157.197,27.232C156.866,26.72 156.701,26.123 156.701,25.44ZM163.421,15.296C164.167,15.296 164.807,15.024 165.341,14.48C165.874,13.936 166.141,13.152 166.141,12.128C166.141,11.147 165.879,10.384 165.357,9.84C164.834,9.296 164.189,9.024 163.421,9.024C162.653,9.024 162.002,9.291 161.469,9.824C160.935,10.357 160.669,11.125 160.669,12.128C160.669,13.152 160.935,13.936 161.469,14.48C162.002,15.024 162.653,15.296 163.421,15.296Z" style="fill:rgb(160,160,160);fill-rule:nonzero;"/>
            <path d="M180.797,6.88L183.837,6.88L184.093,9.664L184.221,9.664C184.775,8.64 185.447,7.856 186.237,7.312C187.026,6.768 187.837,6.496 188.669,6.496C189.415,6.496 190.013,6.603 190.461,6.816L189.821,10.016C189.543,9.931 189.287,9.867 189.053,9.824C188.818,9.781 188.53,9.76 188.189,9.76C187.57,9.76 186.919,10 186.237,10.48C185.554,10.96 184.967,11.797 184.477,12.992L184.477,22.592L180.797,22.592L180.797,6.88Z" style="fill:rgb(160,160,160);fill-rule:nonzero;"/>
            <path d="M197.597,18.368C197.597,16.683 198.333,15.381 199.805,14.464C201.277,13.547 203.623,12.907 206.845,12.544C206.845,12.139 206.791,11.749 206.685,11.376C206.578,11.003 206.413,10.672 206.189,10.384C205.965,10.096 205.677,9.872 205.325,9.712C204.973,9.552 204.53,9.472 203.997,9.472C203.207,9.472 202.445,9.621 201.709,9.92C200.973,10.219 200.263,10.581 199.581,11.008L198.237,8.544C199.111,7.989 200.087,7.509 201.165,7.104C202.242,6.699 203.41,6.496 204.669,6.496C206.653,6.496 208.125,7.077 209.085,8.24C210.045,9.403 210.525,11.083 210.525,13.28L210.525,22.592L207.517,22.592L207.229,20.864L207.133,20.864C206.429,21.461 205.677,21.963 204.877,22.368C204.077,22.773 203.207,22.976 202.269,22.976C200.882,22.976 199.757,22.555 198.893,21.712C198.029,20.869 197.597,19.755 197.597,18.368ZM201.181,18.08C201.181,18.784 201.389,19.296 201.805,19.616C202.221,19.936 202.759,20.096 203.421,20.096C204.061,20.096 204.647,19.947 205.181,19.648C205.714,19.349 206.269,18.923 206.845,18.368L206.845,14.848C205.778,14.976 204.882,15.147 204.157,15.36C203.431,15.573 202.85,15.813 202.413,16.08C201.975,16.347 201.661,16.651 201.469,16.992C201.277,17.333 201.181,17.696 201.181,18.08Z" style="fill:rgb(160,160,160);fill-rule:nonzero;"/>
            <path d="M225.085,23.872L225.085,28.8L221.405,28.8L221.405,6.88L224.445,6.88L224.701,8.544L224.829,8.544C225.49,7.989 226.226,7.509 227.037,7.104C227.847,6.699 228.69,6.496 229.565,6.496C230.546,6.496 231.415,6.683 232.173,7.056C232.93,7.429 233.575,7.968 234.109,8.672C234.642,9.376 235.047,10.219 235.325,11.2C235.602,12.181 235.741,13.28 235.741,14.496C235.741,15.84 235.554,17.04 235.181,18.096C234.807,19.152 234.311,20.037 233.693,20.752C233.074,21.467 232.359,22.016 231.549,22.4C230.738,22.784 229.895,22.976 229.021,22.976C228.338,22.976 227.655,22.827 226.973,22.528C226.29,22.229 225.629,21.803 224.989,21.248L225.085,23.872ZM225.085,18.624C225.661,19.115 226.215,19.456 226.749,19.648C227.282,19.84 227.783,19.936 228.253,19.936C229.298,19.936 230.173,19.483 230.877,18.576C231.581,17.669 231.933,16.32 231.933,14.528C231.933,12.949 231.666,11.723 231.133,10.848C230.599,9.973 229.735,9.536 228.541,9.536C227.431,9.536 226.279,10.123 225.085,11.296L225.085,18.624Z" style="fill:rgb(160,160,160);fill-rule:nonzero;"/>
            <path d="M245.853,0L249.533,0L249.533,5.824L249.405,8.864C250.066,8.245 250.797,7.696 251.597,7.216C252.397,6.736 253.341,6.496 254.429,6.496C256.114,6.496 257.341,7.035 258.109,8.112C258.877,9.189 259.261,10.731 259.261,12.736L259.261,22.592L255.581,22.592L255.581,13.216C255.581,11.915 255.389,10.997 255.005,10.464C254.621,9.931 253.991,9.664 253.117,9.664C252.434,9.664 251.831,9.829 251.309,10.16C250.786,10.491 250.194,10.976 249.533,11.616L249.533,22.592L245.853,22.592L245.853,0Z" style="fill:rgb(160,160,160);fill-rule:nonzero;"/>
            <path d="M271.965,4.128C271.303,4.128 270.759,3.936 270.333,3.552C269.906,3.168 269.693,2.667 269.693,2.048C269.693,1.429 269.906,0.923 270.333,0.528C270.759,0.133 271.303,-0.064 271.965,-0.064C272.626,-0.064 273.17,0.133 273.597,0.528C274.023,0.923 274.237,1.429 274.237,2.048C274.237,2.667 274.023,3.168 273.597,3.552C273.17,3.936 272.626,4.128 271.965,4.128ZM270.109,6.88L273.789,6.88L273.789,22.592L270.109,22.592L270.109,6.88Z" style="fill:rgb(160,160,160);fill-rule:nonzero;"/>
            <path d="M283.869,14.752C283.869,13.451 284.082,12.288 284.509,11.264C284.935,10.24 285.511,9.376 286.237,8.672C286.962,7.968 287.799,7.429 288.749,7.056C289.698,6.683 290.695,6.496 291.741,6.496C292.765,6.496 293.655,6.672 294.413,7.024C295.17,7.376 295.815,7.808 296.349,8.32L294.589,10.656C294.162,10.293 293.735,10.011 293.309,9.808C292.882,9.605 292.423,9.504 291.933,9.504C290.653,9.504 289.618,9.979 288.829,10.928C288.039,11.877 287.645,13.152 287.645,14.752C287.645,16.331 288.034,17.595 288.813,18.544C289.591,19.493 290.599,19.968 291.837,19.968C292.477,19.968 293.069,19.835 293.613,19.568C294.157,19.301 294.642,18.987 295.069,18.624L296.605,20.96C295.858,21.621 295.037,22.123 294.141,22.464C293.245,22.805 292.349,22.976 291.453,22.976C290.386,22.976 289.389,22.795 288.461,22.432C287.533,22.069 286.727,21.536 286.045,20.832C285.362,20.128 284.829,19.264 284.445,18.24C284.061,17.216 283.869,16.053 283.869,14.752Z" style="fill:rgb(160,160,160);fill-rule:nonzero;"/>
            <path d="M306.237,18.432C306.941,18.987 307.639,19.419 308.333,19.728C309.026,20.037 309.778,20.192 310.589,20.192C311.442,20.192 312.071,20.016 312.477,19.664C312.882,19.312 313.085,18.859 313.085,18.304C313.085,17.984 312.989,17.701 312.797,17.456C312.605,17.211 312.349,16.992 312.029,16.8C311.709,16.608 311.346,16.432 310.941,16.272C310.535,16.112 310.13,15.947 309.725,15.776C309.213,15.584 308.69,15.36 308.157,15.104C307.623,14.848 307.149,14.539 306.733,14.176C306.317,13.813 305.975,13.392 305.709,12.912C305.442,12.432 305.309,11.861 305.309,11.2C305.309,9.813 305.821,8.683 306.845,7.808C307.869,6.933 309.266,6.496 311.037,6.496C312.125,6.496 313.106,6.688 313.981,7.072C314.855,7.456 315.613,7.893 316.253,8.384L314.557,10.624C314.002,10.219 313.442,9.893 312.877,9.648C312.311,9.403 311.719,9.28 311.101,9.28C310.311,9.28 309.73,9.445 309.357,9.776C308.983,10.107 308.797,10.517 308.797,11.008C308.797,11.328 308.887,11.6 309.069,11.824C309.25,12.048 309.49,12.245 309.789,12.416C310.087,12.587 310.434,12.747 310.829,12.896C311.223,13.045 311.634,13.195 312.061,13.344C312.594,13.536 313.127,13.755 313.661,14C314.194,14.245 314.679,14.549 315.117,14.912C315.554,15.275 315.906,15.717 316.173,16.24C316.439,16.763 316.573,17.387 316.573,18.112C316.573,18.795 316.439,19.429 316.173,20.016C315.906,20.603 315.517,21.115 315.005,21.552C314.493,21.989 313.853,22.336 313.085,22.592C312.317,22.848 311.442,22.976 310.461,22.976C309.373,22.976 308.301,22.768 307.245,22.352C306.189,21.936 305.277,21.419 304.509,20.8L306.237,18.432Z" style="fill:rgb(160,160,160);fill-rule:nonzero;"/>
            <path d="M365.878,-0.128L368.374,-0.128L360.918,27.712L358.422,27.712L365.878,-0.128Z" style="fill:rgb(160,160,160);fill-rule:nonzero;"/>
            <path d="M409.935,6.88L413.679,6.88L416.175,15.04C416.388,15.808 416.607,16.587 416.831,17.376C417.055,18.165 417.273,18.965 417.487,19.776L417.615,19.776C417.849,18.965 418.073,18.165 418.287,17.376C418.5,16.587 418.724,15.808 418.959,15.04L421.455,6.88L425.007,6.88L419.663,22.592L415.407,22.592L409.935,6.88Z" style="fill:rgb(160,160,160);fill-rule:nonzero;"/>
            <path d="M435.983,4.128C435.321,4.128 434.777,3.936 434.351,3.552C433.924,3.168 433.711,2.667 433.711,2.048C433.711,1.429 433.924,0.923 434.351,0.528C434.777,0.133 435.321,-0.064 435.983,-0.064C436.644,-0.064 437.188,0.133 437.615,0.528C438.041,0.923 438.255,1.429 438.255,2.048C438.255,2.667 438.041,3.168 437.615,3.552C437.188,3.936 436.644,4.128 435.983,4.128ZM434.127,6.88L437.807,6.88L437.807,22.592L434.127,22.592L434.127,6.88Z" style="fill:rgb(160,160,160);fill-rule:nonzero;"/>
            <path d="M449.071,18.432C449.775,18.987 450.473,19.419 451.167,19.728C451.86,20.037 452.612,20.192 453.423,20.192C454.276,20.192 454.905,20.016 455.311,19.664C455.716,19.312 455.919,18.859 455.919,18.304C455.919,17.984 455.823,17.701 455.631,17.456C455.439,17.211 455.183,16.992 454.863,16.8C454.543,16.608 454.18,16.432 453.775,16.272C453.369,16.112 452.964,15.947 452.559,15.776C452.047,15.584 451.524,15.36 450.991,15.104C450.457,14.848 449.983,14.539 449.567,14.176C449.151,13.813 448.809,13.392 448.543,12.912C448.276,12.432 448.143,11.861 448.143,11.2C448.143,9.813 448.655,8.683 449.679,7.808C450.703,6.933 452.1,6.496 453.871,6.496C454.959,6.496 455.94,6.688 456.815,7.072C457.689,7.456 458.447,7.893 459.087,8.384L457.391,10.624C456.836,10.219 456.276,9.893 455.711,9.648C455.145,9.403 454.553,9.28 453.935,9.28C453.145,9.28 452.564,9.445 452.191,9.776C451.817,10.107 451.631,10.517 451.631,11.008C451.631,11.328 451.721,11.6 451.903,11.824C452.084,12.048 452.324,12.245 452.623,12.416C452.921,12.587 453.268,12.747 453.663,12.896C454.057,13.045 454.468,13.195 454.895,13.344C455.428,13.536 455.961,13.755 456.495,14C457.028,14.245 457.513,14.549 457.951,14.912C458.388,15.275 458.74,15.717 459.007,16.24C459.273,16.763 459.407,17.387 459.407,18.112C459.407,18.795 459.273,19.429 459.007,20.016C458.74,20.603 458.351,21.115 457.839,21.552C457.327,21.989 456.687,22.336 455.919,22.592C455.151,22.848 454.276,22.976 453.295,22.976C452.207,22.976 451.135,22.768 450.079,22.352C449.023,21.936 448.111,21.419 447.343,20.8L449.071,18.432Z" style="fill:rgb(160,160,160);fill-rule:nonzero;"/>
            <path d="M468.943,6.88L472.623,6.88L472.623,16.256C472.623,17.557 472.815,18.475 473.199,19.008C473.583,19.541 474.201,19.808 475.055,19.808C475.737,19.808 476.34,19.637 476.863,19.296C477.385,18.955 477.945,18.4 478.543,17.632L478.543,6.88L482.223,6.88L482.223,22.592L479.215,22.592L478.927,20.288L478.831,20.288C478.148,21.099 477.407,21.749 476.607,22.24C475.807,22.731 474.863,22.976 473.775,22.976C472.089,22.976 470.863,22.437 470.095,21.36C469.327,20.283 468.943,18.741 468.943,16.736L468.943,6.88Z" style="fill:rgb(160,160,160);fill-rule:nonzero;"/>
            <path d="M492.623,18.368C492.623,16.683 493.359,15.381 494.831,14.464C496.303,13.547 498.649,12.907 501.871,12.544C501.871,12.139 501.817,11.749 501.711,11.376C501.604,11.003 501.439,10.672 501.215,10.384C500.991,10.096 500.703,9.872 500.351,9.712C499.999,9.552 499.556,9.472 499.023,9.472C498.233,9.472 497.471,9.621 496.735,9.92C495.999,10.219 495.289,10.581 494.607,11.008L493.263,8.544C494.137,7.989 495.113,7.509 496.191,7.104C497.268,6.699 498.436,6.496 499.695,6.496C501.679,6.496 503.151,7.077 504.111,8.24C505.071,9.403 505.551,11.083 505.551,13.28L505.551,22.592L502.543,22.592L502.255,20.864L502.159,20.864C501.455,21.461 500.703,21.963 499.903,22.368C499.103,22.773 498.233,22.976 497.295,22.976C495.908,22.976 494.783,22.555 493.919,21.712C493.055,20.869 492.623,19.755 492.623,18.368ZM496.207,18.08C496.207,18.784 496.415,19.296 496.831,19.616C497.247,19.936 497.785,20.096 498.447,20.096C499.087,20.096 499.673,19.947 500.207,19.648C500.74,19.349 501.295,18.923 501.871,18.368L501.871,14.848C500.804,14.976 499.908,15.147 499.183,15.36C498.457,15.573 497.876,15.813 497.439,16.08C497.001,16.347 496.687,16.651 496.495,16.992C496.303,17.333 496.207,17.696 496.207,18.08Z" style="fill:rgb(160,160,160);fill-rule:nonzero;"/>
            <path d="M516.431,0L520.111,0L520.111,18.752C520.111,19.2 520.196,19.515 520.367,19.696C520.537,19.877 520.719,19.968 520.911,19.968C520.996,19.968 521.076,19.968 521.151,19.968C521.225,19.968 521.337,19.947 521.487,19.904L521.967,22.656C521.476,22.869 520.825,22.976 520.015,22.976C518.692,22.976 517.764,22.581 517.231,21.792C516.697,21.003 516.431,19.925 516.431,18.56L516.431,0Z" style="fill:rgb(160,160,160);fill-rule:nonzero;"/>
            <path d="M533.359,4.128C532.697,4.128 532.153,3.936 531.727,3.552C531.3,3.168 531.087,2.667 531.087,2.048C531.087,1.429 531.3,0.923 531.727,0.528C532.153,0.133 532.697,-0.064 533.359,-0.064C534.02,-0.064 534.564,0.133 534.991,0.528C535.417,0.923 535.631,1.429 535.631,2.048C535.631,2.667 535.417,3.168 534.991,3.552C534.564,3.936 534.02,4.128 533.359,4.128ZM531.503,6.88L535.183,6.88L535.183,22.592L531.503,22.592L531.503,6.88Z" style="fill:rgb(160,160,160);fill-rule:nonzero;"/>
            <path d="M545.039,20.608L552.463,9.792L545.871,9.792L545.871,6.88L557.071,6.88L557.071,8.832L549.679,19.648L557.327,19.648L557.327,22.592L545.039,22.592L545.039,20.608Z" style="fill:rgb(160,160,160);fill-rule:nonzero;"/>
            <path d="M565.615,18.368C565.615,16.683 566.351,15.381 567.823,14.464C569.295,13.547 571.641,12.907 574.863,12.544C574.863,12.139 574.809,11.749 574.703,11.376C574.596,11.003 574.431,10.672 574.207,10.384C573.983,10.096 573.695,9.872 573.343,9.712C572.991,9.552 572.548,9.472 572.015,9.472C571.225,9.472 570.463,9.621 569.727,9.92C568.991,10.219 568.281,10.581 567.599,11.008L566.255,8.544C567.129,7.989 568.105,7.509 569.183,7.104C570.26,6.699 571.428,6.496 572.687,6.496C574.671,6.496 576.143,7.077 577.103,8.24C578.063,9.403 578.543,11.083 578.543,13.28L578.543,22.592L575.535,22.592L575.247,20.864L575.151,20.864C574.447,21.461 573.695,21.963 572.895,22.368C572.095,22.773 571.225,22.976 570.287,22.976C568.9,22.976 567.775,22.555 566.911,21.712C566.047,20.869 565.615,19.755 565.615,18.368ZM569.199,18.08C569.199,18.784 569.407,19.296 569.823,19.616C570.239,19.936 570.777,20.096 571.439,20.096C572.079,20.096 572.665,19.947 573.199,19.648C573.732,19.349 574.287,18.923 574.863,18.368L574.863,14.848C573.796,14.976 572.9,15.147 572.175,15.36C571.449,15.573 570.868,15.813 570.431,16.08C569.993,16.347 569.679,16.651 569.487,16.992C569.295,17.333 569.199,17.696 569.199,18.08Z" style="fill:rgb(160,160,160);fill-rule:nonzero;"/>
            <path d="M589.967,9.792L587.727,9.792L587.727,7.04L590.159,6.88L590.607,2.592L593.679,2.592L593.679,6.88L597.679,6.88L597.679,9.792L593.679,9.792L593.679,17.28C593.679,19.115 594.415,20.032 595.887,20.032C596.164,20.032 596.447,20 596.735,19.936C597.023,19.872 597.284,19.787 597.519,19.68L598.159,22.4C597.732,22.549 597.247,22.683 596.703,22.8C596.159,22.917 595.577,22.976 594.959,22.976C594.041,22.976 593.268,22.837 592.639,22.56C592.009,22.283 591.497,21.893 591.103,21.392C590.708,20.891 590.42,20.293 590.239,19.6C590.057,18.907 589.967,18.133 589.967,17.28L589.967,9.792Z" style="fill:rgb(160,160,160);fill-rule:nonzero;"/>
            <path d="M609.231,4.128C608.569,4.128 608.025,3.936 607.599,3.552C607.172,3.168 606.959,2.667 606.959,2.048C606.959,1.429 607.172,0.923 607.599,0.528C608.025,0.133 608.569,-0.064 609.231,-0.064C609.892,-0.064 610.436,0.133 610.863,0.528C611.289,0.923 611.503,1.429 611.503,2.048C611.503,2.667 611.289,3.168 610.863,3.552C610.436,3.936 609.892,4.128 609.231,4.128ZM607.375,6.88L611.055,6.88L611.055,22.592L607.375,22.592L607.375,6.88Z" style="fill:rgb(160,160,160);fill-rule:nonzero;"/>
            <path d="M621.135,14.752C621.135,13.451 621.337,12.288 621.743,11.264C622.148,10.24 622.697,9.376 623.391,8.672C624.084,7.968 624.879,7.429 625.775,7.056C626.671,6.683 627.609,6.496 628.591,6.496C629.572,6.496 630.516,6.683 631.423,7.056C632.329,7.429 633.124,7.968 633.807,8.672C634.489,9.376 635.039,10.24 635.455,11.264C635.871,12.288 636.079,13.451 636.079,14.752C636.079,16.053 635.871,17.216 635.455,18.24C635.039,19.264 634.489,20.128 633.807,20.832C633.124,21.536 632.329,22.069 631.423,22.432C630.516,22.795 629.572,22.976 628.591,22.976C627.609,22.976 626.671,22.795 625.775,22.432C624.879,22.069 624.084,21.536 623.391,20.832C622.697,20.128 622.148,19.264 621.743,18.24C621.337,17.216 621.135,16.053 621.135,14.752ZM624.911,14.752C624.911,16.331 625.236,17.595 625.887,18.544C626.537,19.493 627.439,19.968 628.591,19.968C629.743,19.968 630.649,19.493 631.311,18.544C631.972,17.595 632.303,16.331 632.303,14.752C632.303,13.152 631.972,11.877 631.311,10.928C630.649,9.979 629.743,9.504 628.591,9.504C627.439,9.504 626.537,9.979 625.887,10.928C625.236,11.877 624.911,13.152 624.911,14.752Z" style="fill:rgb(160,160,160);fill-rule:nonzero;"/>
            <path d="M646.127,6.88L649.167,6.88L649.423,8.992L649.551,8.992C650.255,8.309 651.017,7.723 651.839,7.232C652.66,6.741 653.615,6.496 654.703,6.496C656.388,6.496 657.615,7.035 658.383,8.112C659.151,9.189 659.535,10.731 659.535,12.736L659.535,22.592L655.855,22.592L655.855,13.216C655.855,11.915 655.663,10.997 655.279,10.464C654.895,9.931 654.265,9.664 653.391,9.664C652.708,9.664 652.105,9.829 651.583,10.16C651.06,10.491 650.468,10.976 649.807,11.616L649.807,22.592L646.127,22.592L646.127,6.88Z" style="fill:rgb(160,160,160);fill-rule:nonzero;"/>
            <path d="M710.056,-0.128L712.552,-0.128L705.096,27.712L702.6,27.712L710.056,-0.128Z" style="fill:rgb(160,160,160);fill-rule:nonzero;"/>
            <path d="M755.105,14.752C755.105,13.472 755.291,12.32 755.665,11.296C756.038,10.272 756.534,9.408 757.153,8.704C757.771,8 758.481,7.456 759.281,7.072C760.081,6.688 760.907,6.496 761.761,6.496C762.657,6.496 763.414,6.651 764.033,6.96C764.651,7.269 765.27,7.691 765.889,8.224L765.761,5.696L765.761,0L769.441,0L769.441,22.592L766.401,22.592L766.145,20.896L766.017,20.896C765.441,21.472 764.769,21.963 764.001,22.368C763.233,22.773 762.422,22.976 761.569,22.976C759.585,22.976 758.011,22.256 756.849,20.816C755.686,19.376 755.105,17.355 755.105,14.752ZM758.913,14.72C758.913,16.427 759.217,17.723 759.825,18.608C760.433,19.493 761.313,19.936 762.465,19.936C763.638,19.936 764.737,19.349 765.761,18.176L765.761,10.848C765.206,10.357 764.667,10.016 764.145,9.824C763.622,9.632 763.094,9.536 762.561,9.536C761.537,9.536 760.673,9.984 759.969,10.88C759.265,11.776 758.913,13.056 758.913,14.72Z" style="fill:rgb(160,160,160);fill-rule:nonzero;"/>
            <path d="M782.369,4.128C781.707,4.128 781.163,3.936 780.737,3.552C780.31,3.168 780.097,2.667 780.097,2.048C780.097,1.429 780.31,0.923 780.737,0.528C781.163,0.133 781.707,-0.064 782.369,-0.064C783.03,-0.064 783.574,0.133 784.001,0.528C784.427,0.923 784.641,1.429 784.641,2.048C784.641,2.667 784.427,3.168 784.001,3.552C783.574,3.936 783.03,4.128 782.369,4.128ZM780.513,6.88L784.193,6.88L784.193,22.592L780.513,22.592L780.513,6.88Z" style="fill:rgb(160,160,160);fill-rule:nonzero;"/>
            <path d="M797.313,24.896C797.313,25.6 797.67,26.149 798.385,26.544C799.099,26.939 800.086,27.136 801.345,27.136C802.625,27.136 803.654,26.885 804.433,26.384C805.211,25.883 805.601,25.291 805.601,24.608C805.601,23.989 805.361,23.573 804.881,23.36C804.401,23.147 803.713,23.04 802.817,23.04L800.673,23.04C799.819,23.04 799.105,22.965 798.529,22.816C797.718,23.435 797.313,24.128 797.313,24.896ZM794.241,25.44C794.241,24.779 794.433,24.165 794.817,23.6C795.201,23.035 795.755,22.528 796.481,22.08L796.481,21.952C796.075,21.696 795.739,21.355 795.473,20.928C795.206,20.501 795.073,19.968 795.073,19.328C795.073,18.709 795.249,18.149 795.601,17.648C795.953,17.147 796.353,16.736 796.801,16.416L796.801,16.288C796.267,15.883 795.793,15.323 795.377,14.608C794.961,13.893 794.753,13.067 794.753,12.128C794.753,11.232 794.923,10.432 795.265,9.728C795.606,9.024 796.059,8.432 796.625,7.952C797.19,7.472 797.846,7.109 798.593,6.864C799.339,6.619 800.129,6.496 800.961,6.496C801.387,6.496 801.798,6.533 802.193,6.608C802.587,6.683 802.945,6.773 803.265,6.88L808.897,6.88L808.897,9.6L806.017,9.6C806.273,9.899 806.486,10.277 806.657,10.736C806.827,11.195 806.913,11.701 806.913,12.256C806.913,13.131 806.758,13.899 806.449,14.56C806.139,15.221 805.718,15.776 805.185,16.224C804.651,16.672 804.022,17.013 803.297,17.248C802.571,17.483 801.793,17.6 800.961,17.6C800.619,17.6 800.267,17.568 799.905,17.504C799.542,17.44 799.179,17.333 798.817,17.184C798.582,17.397 798.395,17.611 798.257,17.824C798.118,18.037 798.049,18.325 798.049,18.688C798.049,19.136 798.235,19.488 798.609,19.744C798.982,20 799.649,20.128 800.609,20.128L803.393,20.128C805.291,20.128 806.726,20.432 807.697,21.04C808.667,21.648 809.153,22.635 809.153,24C809.153,24.768 808.955,25.493 808.561,26.176C808.166,26.859 807.606,27.445 806.881,27.936C806.155,28.427 805.275,28.816 804.241,29.104C803.206,29.392 802.049,29.536 800.769,29.536C799.83,29.536 798.961,29.451 798.161,29.28C797.361,29.109 796.673,28.853 796.097,28.512C795.521,28.171 795.067,27.744 794.737,27.232C794.406,26.72 794.241,26.123 794.241,25.44ZM800.961,15.296C801.707,15.296 802.347,15.024 802.881,14.48C803.414,13.936 803.681,13.152 803.681,12.128C803.681,11.147 803.419,10.384 802.897,9.84C802.374,9.296 801.729,9.024 800.961,9.024C800.193,9.024 799.542,9.291 799.009,9.824C798.475,10.357 798.209,11.125 798.209,12.128C798.209,13.152 798.475,13.936 799.009,14.48C799.542,15.024 800.193,15.296 800.961,15.296Z" style="fill:rgb(160,160,160);fill-rule:nonzero;"/>
            <path d="M820.193,4.128C819.531,4.128 818.987,3.936 818.561,3.552C818.134,3.168 817.921,2.667 817.921,2.048C817.921,1.429 818.134,0.923 818.561,0.528C818.987,0.133 819.531,-0.064 820.193,-0.064C820.854,-0.064 821.398,0.133 821.825,0.528C822.251,0.923 822.465,1.429 822.465,2.048C822.465,2.667 822.251,3.168 821.825,3.552C821.398,3.936 820.854,4.128 820.193,4.128ZM818.337,6.88L822.017,6.88L822.017,22.592L818.337,22.592L818.337,6.88Z" style="fill:rgb(160,160,160);fill-rule:nonzero;"/>
            <path d="M833.665,9.792L831.425,9.792L831.425,7.04L833.857,6.88L834.305,2.592L837.377,2.592L837.377,6.88L841.377,6.88L841.377,9.792L837.377,9.792L837.377,17.28C837.377,19.115 838.113,20.032 839.585,20.032C839.862,20.032 840.145,20 840.433,19.936C840.721,19.872 840.982,19.787 841.217,19.68L841.857,22.4C841.43,22.549 840.945,22.683 840.401,22.8C839.857,22.917 839.275,22.976 838.657,22.976C837.739,22.976 836.966,22.837 836.337,22.56C835.707,22.283 835.195,21.893 834.801,21.392C834.406,20.891 834.118,20.293 833.937,19.6C833.755,18.907 833.665,18.133 833.665,17.28L833.665,9.792Z" style="fill:rgb(160,160,160);fill-rule:nonzero;"/>
            <path d="M849.921,18.368C849.921,16.683 850.657,15.381 852.129,14.464C853.601,13.547 855.947,12.907 859.169,12.544C859.169,12.139 859.115,11.749 859.009,11.376C858.902,11.003 858.737,10.672 858.513,10.384C858.289,10.096 858.001,9.872 857.649,9.712C857.297,9.552 856.854,9.472 856.321,9.472C855.531,9.472 854.769,9.621 854.033,9.92C853.297,10.219 852.587,10.581 851.905,11.008L850.561,8.544C851.435,7.989 852.411,7.509 853.489,7.104C854.566,6.699 855.734,6.496 856.993,6.496C858.977,6.496 860.449,7.077 861.409,8.24C862.369,9.403 862.849,11.083 862.849,13.28L862.849,22.592L859.841,22.592L859.553,20.864L859.457,20.864C858.753,21.461 858.001,21.963 857.201,22.368C856.401,22.773 855.531,22.976 854.593,22.976C853.206,22.976 852.081,22.555 851.217,21.712C850.353,20.869 849.921,19.755 849.921,18.368ZM853.505,18.08C853.505,18.784 853.713,19.296 854.129,19.616C854.545,19.936 855.083,20.096 855.745,20.096C856.385,20.096 856.971,19.947 857.505,19.648C858.038,19.349 858.593,18.923 859.169,18.368L859.169,14.848C858.102,14.976 857.206,15.147 856.481,15.36C855.755,15.573 855.174,15.813 854.737,16.08C854.299,16.347 853.985,16.651 853.793,16.992C853.601,17.333 853.505,17.696 853.505,18.08Z" style="fill:rgb(160,160,160);fill-rule:nonzero;"/>
            <path d="M873.729,0L877.409,0L877.409,18.752C877.409,19.2 877.494,19.515 877.665,19.696C877.835,19.877 878.017,19.968 878.209,19.968C878.294,19.968 878.374,19.968 878.449,19.968C878.523,19.968 878.635,19.947 878.785,19.904L879.265,22.656C878.774,22.869 878.123,22.976 877.313,22.976C875.99,22.976 875.062,22.581 874.529,21.792C873.995,21.003 873.729,19.925 873.729,18.56L873.729,0Z" style="fill:rgb(160,160,160);fill-rule:nonzero;"/>
            <path d="M905.181,18.368C905.181,16.683 905.917,15.381 907.389,14.464C908.861,13.547 911.208,12.907 914.429,12.544C914.429,12.139 914.376,11.749 914.269,11.376C914.163,11.003 913.997,10.672 913.773,10.384C913.549,10.096 913.261,9.872 912.909,9.712C912.557,9.552 912.115,9.472 911.581,9.472C910.792,9.472 910.029,9.621 909.293,9.92C908.557,10.219 907.848,10.581 907.165,11.008L905.821,8.544C906.696,7.989 907.672,7.509 908.749,7.104C909.827,6.699 910.995,6.496 912.253,6.496C914.237,6.496 915.709,7.077 916.669,8.24C917.629,9.403 918.109,11.083 918.109,13.28L918.109,22.592L915.101,22.592L914.813,20.864L914.717,20.864C914.013,21.461 913.261,21.963 912.461,22.368C911.661,22.773 910.792,22.976 909.853,22.976C908.467,22.976 907.341,22.555 906.477,21.712C905.613,20.869 905.181,19.755 905.181,18.368ZM908.765,18.08C908.765,18.784 908.973,19.296 909.389,19.616C909.805,19.936 910.344,20.096 911.005,20.096C911.645,20.096 912.232,19.947 912.765,19.648C913.299,19.349 913.853,18.923 914.429,18.368L914.429,14.848C913.363,14.976 912.467,15.147 911.741,15.36C911.016,15.573 910.435,15.813 909.997,16.08C909.56,16.347 909.245,16.651 909.053,16.992C908.861,17.333 908.765,17.696 908.765,18.08Z" style="fill:rgb(160,160,160);fill-rule:nonzero;"/>
            <path d="M928.989,6.88L932.029,6.88L932.285,9.664L932.413,9.664C932.968,8.64 933.64,7.856 934.429,7.312C935.219,6.768 936.029,6.496 936.861,6.496C937.608,6.496 938.205,6.603 938.653,6.816L938.013,10.016C937.736,9.931 937.48,9.867 937.245,9.824C937.011,9.781 936.723,9.76 936.381,9.76C935.763,9.76 935.112,10 934.429,10.48C933.747,10.96 933.16,11.797 932.669,12.992L932.669,22.592L928.989,22.592L928.989,6.88Z" style="fill:rgb(160,160,160);fill-rule:nonzero;"/>
            <path d="M947.869,9.792L945.629,9.792L945.629,7.04L948.061,6.88L948.509,2.592L951.581,2.592L951.581,6.88L955.581,6.88L955.581,9.792L951.581,9.792L951.581,17.28C951.581,19.115 952.317,20.032 953.789,20.032C954.067,20.032 954.349,20 954.637,19.936C954.925,19.872 955.187,19.787 955.421,19.68L956.061,22.4C955.635,22.549 955.149,22.683 954.605,22.8C954.061,22.917 953.48,22.976 952.861,22.976C951.944,22.976 951.171,22.837 950.541,22.56C949.912,22.283 949.4,21.893 949.005,21.392C948.611,20.891 948.323,20.293 948.141,19.6C947.96,18.907 947.869,18.133 947.869,17.28L947.869,9.792Z" style="fill:rgb(160,160,160);fill-rule:nonzero;"/>
        </g>
    </g>
</svg>
